<svg id="Capa_1" data-name="Capa 1" xmlns="http://www.w3.org/2000/svg" viewBox="0 0 760.25 483.84"><defs><style>.cls-1{fill:#6d6d6e;}.cls-2{fill:#1b1b1b;}.cls-3{fill:#e75925;}.cls-4{fill:#f4c274;}.cls-5{fill:#8e693f;}.cls-6{fill:#f3c275;}.cls-7{fill:#f6ee25;}.cls-8{fill:#ec6d26;}.cls-9{fill:#f3e212;}.cls-10{fill:#110e0f;}.cls-11{fill:#141514;}.cls-12{fill:#e66436;}.cls-13{fill:#605b57;}.cls-14{fill:#927550;}.cls-15{fill:#f0d018;}.cls-16{fill:#947145;}.cls-17{fill:#0e090b;}.cls-18{fill:#e95b26;}.cls-19{fill:#191919;}.cls-20{fill:#f2de17;}.cls-21{fill:#fafaf8;}.cls-22{fill:#f0bd6b;}.cls-23{fill:#28120a;}.cls-24{fill:#f9f9f6;}.cls-25{fill:#ac8a2e;}.cls-26{fill:#e4da1d;}.cls-27{fill:#124416;}.cls-28{fill:#fff;}.cls-29{fill:#262626;}</style></defs><path class="cls-1" d="M167.45,66l7.67-19.59H179l5.25,4c-2.4,3.79-3,8.25-4.74,12.3C177.05,68.69,173.3,71.58,167.45,66Z" transform="translate(-43.06 -46.38)"/><path class="cls-2" d="M178.26,181c5.53-3.53,14.56-.09,17.6-5.57,2.62-4.74.71-12,.67-18.17,0-3.41,1.29-6.33,2.91-9.18,6.95.25,14.08,2.06,20.47-2.39,2.52,4.35,6.47,7.57,9.37,11.64.29.91.31,2.14.93,2.69,12.75,11.24,14.06,25.54,11.12,41-1.78,3.88-5.1,5.34-9.08,5.78-.48-7.08-1-14.15-1.42-21.23a8.77,8.77,0,0,0-3-6.74c-9.37-8.26-11.7-8-17.83,2.71-3.71,6.51-8.63,10.08-16.57,8.68-4.73-.83-9.6-.89-14.41-1.29C175.34,186.59,177.24,183.73,178.26,181Z" transform="translate(-43.06 -46.38)"/><path class="cls-3" d="M241.63,128.37l-3.35,6.72c-11.73.19-21.7-4.13-30.35-11.82l.45-.58c6.6-4.73,6.6-12.55,9-19.24,1.75-1.64,3.53-.71,5.32-.08,2.74,1.59,6.43,2.31,6.27,6.62.15,2.15-.77,4.32.16,6.64,2.17-1.32.16-3,.52-4.46-.25-4.9,2.82-5,6.19-4a12,12,0,0,1,7.17,5.77C244.7,118.93,245.32,123.87,241.63,128.37Z" transform="translate(-43.06 -46.38)"/><path class="cls-4" d="M202.82,109.05c-11.38-9.34-12.75-13.72-8.56-27.26,1-3.32,2.7-6.61.79-10.16.6-1.88-.59-4.29,1.69-5.66,3.22.19,7.12-1,8,3.91.82,1.73,1.65,3.46,1.5,5.45-4.61,8.7-2.23,16.53,3,24C208.85,103.73,209.09,108.56,202.82,109.05Z" transform="translate(-43.06 -46.38)"/><path class="cls-5" d="M204.54,75.77l.24-5.89,23,9.6c10.36,1.91,19.72,5.92,27.59,13.07l11.78,5.1c2,2.55,1.51,4.67-1.08,6.45-5.47,1.47-9.38-1.66-13.39-4.53a16.28,16.28,0,0,0-6.9-4.06c-7.29-2.8-14.14-6.76-22-8.06C217.08,84.05,209,82.85,204.54,75.77Z" transform="translate(-43.06 -46.38)"/><path class="cls-6" d="M265.14,103.36c2.6-1.23,2.23-3.49,2-5.71,3.37-.75,6.19-.17,7.86,3.22-1.51,3,1.95,4.79,1.8,7.45-1.52.51-3.72.93-3.61,2.69.8,13.16-6.87,15.5-17.65,14.26-1.2-.14-2.5.55-3.75.85-3.37-3.23-3.09-6.94-1.43-10.82C255.74,111.9,263.31,111.17,265.14,103.36Z" transform="translate(-43.06 -46.38)"/><path class="cls-7" d="M255.37,92.55c-9.5-3.73-18.93-7.58-27.59-13.07,5.33-6,11.53-7.64,19.15-4.5C255.2,78.39,256.08,85,255.37,92.55Z" transform="translate(-43.06 -46.38)"/><path class="cls-8" d="M204.86,132.14l1.62-3.85c11.74-1,20.84,5.89,30.72,10.42l-2.82,5.86c-5.74,1.76-10.1-2.18-15.07-3.62C214.11,138.66,208.33,137.28,204.86,132.14Z" transform="translate(-43.06 -46.38)"/><path class="cls-9" d="M237.2,138.71c-11.1-.94-20.16-7.88-30.72-10.42-.12-1.85-.27-3.71,1.44-5l30.36,11.83Z" transform="translate(-43.06 -46.38)"/><path class="cls-10" d="M251.78,115q0,5.55,0,11.08a20.8,20.8,0,0,1-10.16,2.25V113.75a2.62,2.62,0,0,1,1.58-2.21C246.91,110.65,250.1,111,251.78,115Z" transform="translate(-43.06 -46.38)"/><path class="cls-11" d="M232.25,206.77c2-3.59,5.93-4.06,9.08-5.78,2.07,4.32,8.45,4.34,9.58,9.6-6.23,2.6-12.44.86-18.66,0Z" transform="translate(-43.06 -46.38)"/><path class="cls-12" d="M229.28,157.29c-5.36-2-11.41-3.38-9-11.45-.37-1.81.79-2.38,2.23-2.72,4.05.75,8.29,1.13,10.74,5.19C233,151.79,232.4,155.09,229.28,157.29Z" transform="translate(-43.06 -46.38)"/><path class="cls-13" d="M167.45,66c6.11,2.75,9.14.57,10.71-5.79.91-3.67.94-8.54,6.13-9.8,1.79,3.23-.66,6-1,9,1.41,2.82.83,4.89-2.24,6.05C173.14,73.58,171,73.67,167.45,66Z" transform="translate(-43.06 -46.38)"/><path class="cls-14" d="M181.07,65.43l2.24-6.05L196.74,66c.09,2.08.32,4.2-1.69,5.66Z" transform="translate(-43.06 -46.38)"/><path class="cls-15" d="M233.27,148.31,222,144.21c-.88-.74-2.13-1-2.66-2.2a2.8,2.8,0,0,1,.8-3.19l14.28,5.75Z" transform="translate(-43.06 -46.38)"/><path class="cls-16" d="M276.81,108.32c-1.32-2.08-5.32-.69-5.51-4.23-.15-2.66,1.87-2.84,3.71-3.22,2.19,1.61,6,1.71,6,5.36C281,108.89,278.88,108.92,276.81,108.32Z" transform="translate(-43.06 -46.38)"/><path class="cls-17" d="M202.82,109.05c3.61-2.11,3.71-6.43,5.93-9.42,5.64-3.49,9.12-1.92,10.56,4.48-1,4.37-1.77,8.85-3.21,13.08-1.15,3.39-3.07,6.61-7.72,5.5Q205.59,115.87,202.82,109.05Z" transform="translate(-43.06 -46.38)"/><path class="cls-18" d="M220.08,141.59l1.88,2.62-1.66,1.64c-6.13,8.5-13.36,6.68-20.86,2.2q1.76-5.15,3.5-10.29C209.71,134.31,214.5,139.73,220.08,141.59Z" transform="translate(-43.06 -46.38)"/><path class="cls-19" d="M178.26,181l.77,7.94c-5.9.06-4.51,7.43-8.95,9C164,187.45,166.69,182,178.26,181Z" transform="translate(-43.06 -46.38)"/><path class="cls-20" d="M220.08,141.59c-6.36,1.62-11-4.43-17.14-3.83l1.92-5.62,15.24,6.68C220.09,139.75,220.08,140.67,220.08,141.59Z" transform="translate(-43.06 -46.38)"/><path class="cls-21" d="M219.31,104.11c-2.94-2.85-5.71-6.11-10.56-4.48-9.87-9.8-10.38-12.72-4.21-23.86l19.73,9.72a10.46,10.46,0,0,1,2.34,6.08c.15,3.17.76,6.32.7,9.5-.05,3.34-1.14,5.7-5.21,4.38Z" transform="translate(-43.06 -46.38)"/><path class="cls-22" d="M222.1,105.45c2.37-.49,4.42-1.2,3-4.33A13.47,13.47,0,0,1,224.67,91a5.61,5.61,0,0,1,2.81-.33c7.63,2.45,15.66,3.81,22.56,8.29,2.1,7.45-4.18,10.13-8.08,14.17l-.33.65c-2.16-1.27-4.3-2.57-6.49-3.8-1.42-.8-3.17-1.34-3.94.47-.36.83.76,2.29,1.2,3.47-2.61.31-5.08.42-4.73-3.4C228.22,106.15,223.31,107.84,222.1,105.45Z" transform="translate(-43.06 -46.38)"/><path class="cls-23" d="M227.67,110.49c.52,2.59,2.86,2.65,4.73,3.39,2.12,2.56,2.68,5-.61,7.06-1.4.86-3.19,1.18-4.26-.33C225.21,117.3,224.35,113.82,227.67,110.49Z" transform="translate(-43.06 -46.38)"/><path class="cls-24" d="M242,113.1c.18-5.89,7.28-7.87,7.69-13.62.82-1.39,1.1-4,3.57-1.53l11.92,5.41c.34,11.47.34,11.47-13.36,11.68C248.93,112.26,245.4,112.91,242,113.1Z" transform="translate(-43.06 -46.38)"/><path class="cls-25" d="M253.22,98l-3.57,1.53c-8.31-1.93-16.63-3.84-24-8.38,2.58-4.52,5.94-2,9.23-1.13,4.15,1.17,7.5,5.14,12.42,3.54C249.65,94.45,252.43,94.87,253.22,98Z" transform="translate(-43.06 -46.38)"/><path class="cls-26" d="M247.26,93.51c-4.49,3.94-8.06-.49-11.87-1.55-3.3-.93-6.28-2.93-9.77-.86l-1-.12c-.13-1.84-.27-3.66-.4-5.49C232.87,85.47,239.46,91.25,247.26,93.51Z" transform="translate(-43.06 -46.38)"/><path class="cls-27" d="M105.18,529.27V473.1h24.24q20.61,0,20.62,16.5,0,16.66-22.93,16.67h-5.63v23Zm16.3-28.19h3.66q8.89,0,8.89-11.77,0-11-8.89-11h-3.66Z" transform="translate(-43.06 -46.38)"/><path class="cls-27" d="M181,473.1l15.64,56.17H180.29L177,517.09H160l-3.58,12.18h-6.38l16.63-56.17Zm-19.39,38.35h13.79l-6.63-24.9Z" transform="translate(-43.06 -46.38)"/><path class="cls-27" d="M223.05,498.94h23.12v30.33H241l-1.77-3.87a24.44,24.44,0,0,1-14.36,4.82q-12.48,0-19.37-7.47T198.6,501.7q0-13.21,7.3-21.38T225,472.15q15.55,0,18.93,15.88l-7.65,3.5v-1.36l-.13-3q-.78-9.92-9.17-9.92-6.18,0-8.44,5.27t-2.26,19.63q0,13.41,1.83,18.23a6.87,6.87,0,0,0,7,4.82q6.06,0,6.05-6.75V504.58h-8.1Z" transform="translate(-43.06 -46.38)"/><path class="cls-27" d="M290.58,473.1v5.63H270.45v17h16.92v5.64H270.45v22.26H294v5.64H254.16V473.1Z" transform="translate(-43.06 -46.38)"/><path class="cls-27" d="M365.44,473.1v56.17H353l-23.46-35.56v35.56H324V473.1h10.33L360,511.49V473.1Z" transform="translate(-43.06 -46.38)"/><path class="cls-27" d="M397.79,472.11q24.52,0,24.52,29.05t-25,29.06q-25,0-25-29.72Q372.35,472.11,397.79,472.11Zm-.46,4.48q-4.6,0-6.23,5.09t-1.63,19.48q0,14.41,1.63,19.49t6.23,5.08c3.08,0,5.15-1.69,6.24-5.08s1.62-9.88,1.62-19.49-.54-16.06-1.62-19.46S400.41,476.59,397.33,476.59Z" transform="translate(-43.06 -46.38)"/><path class="cls-27" d="M468.94,473.1v5.63H455.16v50.54H437.87V478.73H424V473.1Z" transform="translate(-43.06 -46.38)"/><path class="cls-27" d="M535.08,473.1v5.63H514.71v18.73H532v5.64H514.71v26.17h-16.3V473.1Z" transform="translate(-43.06 -46.38)"/><path class="cls-27" d="M563.51,472.11q24.54,0,24.53,29.05t-25,29.06q-25,0-25-29.72Q538.08,472.11,563.51,472.11Zm-.45,4.48q-4.6,0-6.23,5.09t-1.63,19.48q0,14.41,1.63,19.49t6.23,5.08q4.61,0,6.24-5.08t1.62-19.49q0-14.36-1.62-19.46T563.06,476.59Z" transform="translate(-43.06 -46.38)"/><path class="cls-27" d="M637.47,473.1v37.69q0,19.4-21.44,19.39t-21.36-19.39V473.1H611v38.19q0,7.41,2.11,10.12t7.84,2.72q11.08,0,11.08-13.34V473.1Z" transform="translate(-43.06 -46.38)"/><path class="cls-27" d="M687.39,473.1v56.17H674.92l-23.46-35.56v35.56H646V473.1h10.33l25.6,38.39V473.1Z" transform="translate(-43.06 -46.38)"/><path class="cls-27" d="M696.77,529.27V473.1h23.3q24.81,0,24.81,28.15t-25.72,28Zm16.3-4.65h4.28q5.88,0,8.15-5.08t2.26-18.38q0-13.29-2.24-18.35t-8.17-5.06h-4.28Z" transform="translate(-43.06 -46.38)"/><path class="cls-27" d="M278.67,391.21H253.49v47.54H188.77V391.21H104V363L210.12,211.08h43.37V365.53h25.18ZM133.56,365.53h56.21V278.46Z" transform="translate(-43.06 -46.38)"/><path class="cls-27" d="M748.1,391.21H722.91v47.54H658.19V391.21H573.46V363L679.54,211.08h43.37V365.53H748.1ZM603,365.53H659.2V278.46Z" transform="translate(-43.06 -46.38)"/><path class="cls-28" d="M541.2,362.57c1.37-3.74,2.57-7.6,3.59-11.49l.11-.45-3-3.37a13.47,13.47,0,0,1,3-20.48l3.83-2.34V324c.06-1.55.1-3.11.1-4.67,0-2.37-.08-4.86-.23-7.41l0-.46-3.88-2.26a13.47,13.47,0,0,1-3.46-20.41l2.94-3.44-.12-.44c-1.09-3.83-2.38-7.67-3.85-11.41l-.17-.43-4.42-1a13.48,13.48,0,0,1-9.6-18.34l1.73-4.15-.26-.39c-2.23-3.32-4.66-6.57-7.21-9.68l-.29-.36-4.47.46a13.47,13.47,0,0,1-14.8-14.48l.36-4.48-.36-.28c-3.14-2.47-6.45-4.82-9.83-7l-.39-.25L486.38,215a13.46,13.46,0,0,1-18.54-9.19l-1-4.41-.44-.16c-3.73-1.36-7.59-2.57-11.49-3.59l-.45-.11-3.37,3a13.47,13.47,0,0,1-20.48-3l-2.33-3.82-.47,0c-4.09-.15-8-.11-12.08.13l-.46,0L413,197.69a13.47,13.47,0,0,1-20.41,3.46l-3.43-2.94-.45.12c-3.82,1.09-7.66,2.38-11.41,3.85l-.43.17-.95,4.42a13.47,13.47,0,0,1-18.34,9.6l-4.16-1.73-.39.26c-3.33,2.24-6.58,4.67-9.68,7.21l-.36.29.46,4.47a13.47,13.47,0,0,1-14.48,14.8l-4.48-.36-.28.36c-2.48,3.15-4.83,6.46-7,9.83l-.25.39,1.81,4.13a13.46,13.46,0,0,1-9.19,18.54l-4.41,1.06-.16.43c-1.37,3.74-2.57,7.61-3.58,11.49l-.12.45,3,3.37a13.48,13.48,0,0,1-3,20.48l-3.82,2.33,0,.47c-.06,1.55-.09,3.11-.09,4.67,0,2.37.07,4.86.22,7.41l0,.46,3.87,2.26a13.47,13.47,0,0,1,3.46,20.41L302,353.29l.12.44c1.09,3.83,2.39,7.66,3.85,11.41l.17.43,4.42,1a13.46,13.46,0,0,1,9.6,18.33L318.42,389l.26.39c2.24,3.32,4.67,6.58,7.21,9.68l.3.36,4.46-.46a13.47,13.47,0,0,1,14.8,14.48l-.36,4.48.36.28c3.15,2.48,6.46,4.83,9.84,7l.38.26,4.13-1.82a13.46,13.46,0,0,1,18.54,9.19l1.05,4.41.44.15c3.72,1.37,7.59,2.58,11.49,3.59l.45.12,3.37-3a13.47,13.47,0,0,1,20.48,3l2.34,3.82.46,0c3.93.14,7.8.12,12.08-.13l.47,0,2.25-3.88a13.47,13.47,0,0,1,20.41-3.46l3.44,2.94.44-.12c3.82-1.09,7.66-2.38,11.41-3.85l.43-.17,1-4.42a13.46,13.46,0,0,1,18.34-9.6L492.8,424l.39-.26c3.33-2.24,6.59-4.67,9.68-7.21l.36-.29-.46-4.47A13.48,13.48,0,0,1,517.24,397l4.49.36L522,397c2.48-3.15,4.83-6.46,7-9.83l.25-.39-1.82-4.13a13.46,13.46,0,0,1,9.19-18.54L541,363Z" transform="translate(-43.06 -46.38)"/><path class="cls-29" d="M550.05,311.82l-.07-1.24-4.54-2.64a12,12,0,0,1-3.09-18.23l3.44-4-.34-1.19c-1.09-3.86-2.4-7.74-3.89-11.54l-.45-1.15-5.18-1.12a12,12,0,0,1-8.57-16.37l2-4.87-.69-1c-2.27-3.36-4.72-6.66-7.3-9.79l-.78-1-5.24.54a12,12,0,0,1-13.21-12.93l.42-5.25-1-.77c-3.18-2.5-6.52-4.87-9.94-7.07l-1.05-.67-4.83,2.14a12,12,0,0,1-16.56-8.22L468,200.28l-1.16-.43c-3.78-1.38-7.69-2.61-11.63-3.63l-1.19-.31-3.95,3.53a12,12,0,0,1-18.29-2.69l-2.74-4.49-1.23,0c-4-.15-8-.12-12.22.13l-1.24.07L411.72,197a12,12,0,0,1-18.23,3.09l-4-3.45-1.19.34c-3.88,1.1-7.76,2.41-11.54,3.89l-1.15.45-1.12,5.18A12,12,0,0,1,358.09,215l-4.87-2-1,.7c-3.37,2.26-6.66,4.71-9.79,7.29l-1,.78L342,227a12,12,0,0,1-12.93,13.21l-5.25-.42-.76,1c-2.51,3.19-4.89,6.53-7.08,9.95l-.67,1,2.14,4.83a12,12,0,0,1-8.21,16.56l-5.16,1.23-.43,1.16c-1.38,3.78-2.6,7.7-3.63,11.63l-.31,1.2,3.53,3.94a12,12,0,0,1-2.69,18.29l-4.48,2.74-.05,1.23c-.06,1.57-.1,3.15-.1,4.73,0,2.4.08,4.92.23,7.49l.07,1.24,4.55,2.64a12,12,0,0,1,3.09,18.23l-3.45,4,.34,1.19c1.1,3.87,2.41,7.75,3.89,11.54l.45,1.15,5.18,1.13a12,12,0,0,1,8.57,16.37l-2,4.87.69,1c2.26,3.37,4.72,6.66,7.29,9.79l.78,1,5.24-.54A12,12,0,0,1,344,413.35l-.42,5.25,1,.77c3.19,2.5,6.53,4.88,9.95,7.07l1,.67,4.83-2.14a12,12,0,0,1,16.56,8.22l1.23,5.15,1.17.43c3.76,1.38,7.68,2.6,11.62,3.63l1.2.31,3.94-3.53a12,12,0,0,1,18.29,2.69l2.74,4.49,1.24,0c1.57.06,3.14.1,4.72.1,2.43,0,4.88-.08,7.5-.23l1.23-.07,2.65-4.55a12,12,0,0,1,18.22-3.09l4,3.45,1.19-.34c3.87-1.1,7.75-2.41,11.54-3.89l1.15-.45,1.12-5.18a12,12,0,0,1,16.37-8.57l4.88,2,1-.69c3.37-2.26,6.66-4.71,9.79-7.29l1-.78-.53-5.24a12,12,0,0,1,12.92-13.21l5.25.42.77-1c2.5-3.19,4.88-6.53,7.07-9.95l.67-1L528.76,382A12,12,0,0,1,537,365.46l5.16-1.23.42-1.17c1.38-3.77,2.61-7.68,3.63-11.62l.31-1.2L543,346.3a12,12,0,0,1,2.7-18.29l4.48-2.74,0-1.24c.06-1.56.1-3.14.1-4.72C550.28,316.91,550.2,314.39,550.05,311.82ZM377.36,406.07a15.38,15.38,0,0,0-2.59-.84,10.24,10.24,0,0,0-1.38-.3l-1.46-.12a10.17,10.17,0,0,0-5.77,1.64,6.62,6.62,0,0,0-1.2.85c-.37.31-.76.61-1.1.94-.61.67-1.31,1.33-1.85,2a51.61,51.61,0,0,0-3.11,4.28c-.95,1.44-1.83,2.92-2.67,4.39-.45.75-.87,1.49-1.29,2.24-2.23-1.5-4.43-3.06-6.56-4.69l.23-2.78a16.61,16.61,0,0,0-16.07-17.94c.88-.9,1.76-1.79,2.65-2.64a23,23,0,0,1,7.52-5.2,9.76,9.76,0,0,1,8.39.84c2.74,1.5,5.19,3.69,8,5.72a20.84,20.84,0,0,0-6.61-8c-.79-.45-1.56-1-2.39-1.35l-1.33-.49a5.28,5.28,0,0,0-1.36-.38,10.73,10.73,0,0,0-2.88-.24,11.64,11.64,0,0,0-1.45.1l-1.41.31a6.14,6.14,0,0,0-1.36.42l-1.31.51c-.83.41-1.63.87-2.41,1.33a42.8,42.8,0,0,0-4.26,3.17c-2,1.66-3.79,3.42-5.55,5.17-1.65-2.09-3.25-4.24-4.76-6.43l1.07-2.58a16.65,16.65,0,0,0-10-22.13c1-.59,2.08-1.19,3.11-1.74a22.77,22.77,0,0,1,8-2.94,8,8,0,0,1,3.72.54,10.18,10.18,0,0,1,3.28,2.38,68.74,68.74,0,0,1,5.62,7.46,18.47,18.47,0,0,0-3.17-9.48,12.16,12.16,0,0,0-4.05-3.7,11,11,0,0,0-5.56-1.39A23.51,23.51,0,0,0,314,358c-2.13,1.06-4.12,2.24-6.07,3.41-.89-2.44-1.73-4.9-2.45-7.37l1.83-2.14a16.66,16.66,0,0,0-4.27-25.21L301,325.49c1.08-.12,2.14-.27,3.16-.44,1.58-.27,3.11-.59,4.61-.88a27,27,0,0,1,8.66-.6,8.19,8.19,0,0,1,3.64,1.41,9,9,0,0,1,2.59,3.11c1.4,2.52,2.08,5.56,2.94,8.64a19.84,19.84,0,0,0,.3-4.81,15.54,15.54,0,0,0-1-4.87,11.8,11.8,0,0,0-2.95-4.37,11.62,11.62,0,0,0-4.8-2.51c-3.48-.92-6.86-.52-10-.19-2.63.3-5.17.75-7.58.95,0-.54,0-1.09,0-1.62,0-1.11,0-2.22.05-3.32l2.37-1.45a16.63,16.63,0,0,0,3.73-25.29l-1.88-2.1c.81-3,1.73-6,2.76-8.85l2.75-.66a16.63,16.63,0,0,0,11.35-22.9l-1.13-2.56c1.7-2.59,3.51-5.13,5.39-7.58l2.78.22a16.64,16.64,0,0,0,17.88-18.27l-.28-2.77c2.07-1.66,4.21-3.26,6.39-4.79,1.19,2.28,2.38,4.6,3.74,7a30.16,30.16,0,0,0,3.27,4.6,13.66,13.66,0,0,0,5,3.65,12.44,12.44,0,0,0,3.11.66l1.55.08c.5,0,1-.11,1.47-.17a13.29,13.29,0,0,0,1.45-.23l1.36-.4,1.34-.41c.43-.18.84-.38,1.25-.57a34,34,0,0,0,8.91-5.91c-3.44.94-6.67,2.2-9.92,2.91s-6.43,1.1-8.8,0-4.09-3.75-5.72-6.66c-.63-1.1-1.25-2.24-1.89-3.39A16.6,16.6,0,0,0,379,207.44l.6-2.76c2.49-.94,5-1.79,7.56-2.57a65.29,65.29,0,0,0,1.6,7.94,22.32,22.32,0,0,0,.81,2.65,22.78,22.78,0,0,0,1.09,2.65,18.71,18.71,0,0,0,1.48,2.59c.3.42.66.81,1,1.21a7.27,7.27,0,0,0,1.09,1.13c.4.34.8.69,1.21,1s.91.53,1.36.78a14,14,0,0,0,2.83,1.15c1,.26,1.93.36,2.88.52s1.87.09,2.8.09a38.15,38.15,0,0,0,10.54-2.09c-3.55-.33-7-.47-10.32-1s-6.2-1.74-8-3.78-2.83-5.1-3.77-8.27c-.31-1.14-.61-2.31-.92-3.5a16.6,16.6,0,0,0,22.92-5.89l1.4-2.4c2.14-.1,4.21-.13,6.25-.12.37,14.75.38,24.54,7.17,26,8,1.65,78.12,19.8,83.07,82.52.1,1.31.18,2.62.25,3.93a92.27,92.27,0,0,0-3.92-16.35,86.11,86.11,0,0,0-8.5-17.64,93.24,93.24,0,0,0-26.93-27.64A89.14,89.14,0,0,0,439,233.94c24.19,7.65,44.37,24.16,55.79,45.19a83.55,83.55,0,0,1,3.8,8.08c1.17,2.73,2.15,5.53,3.05,8.35a86.9,86.9,0,0,1-8.44,68.07,88.58,88.58,0,0,1-10.55,14.12,84.14,84.14,0,0,1-13.17,11.83c-1.2.87-2.44,1.67-3.67,2.52l-3.8,2.31a89.29,89.29,0,0,1-43,12A95.44,95.44,0,0,1,382.49,400a89.85,89.85,0,0,0,8.45,4.36,90.8,90.8,0,0,0,9,3.31,88.36,88.36,0,0,0,18.87,3.66,90.81,90.81,0,0,0,38.2-5.57,88.27,88.27,0,0,0,32.51-21.45,90.46,90.46,0,0,0,18.8-29c-13.28,41.52-50.22,71.55-117.38,57.55-2.32,6.37-6.68,15.89-9.08,21l-.4-1.68A16.6,16.6,0,0,0,361,419.93c.57-1,1.14-2,1.72-3,1.65-2.78,3.42-5.62,5.63-7.29A6.66,6.66,0,0,1,372,408.2l1.07,0a8.55,8.55,0,0,1,1.11.12,12.65,12.65,0,0,1,2.27.49c3.07.9,6.11,2.28,9.56,3A24.25,24.25,0,0,0,377.36,406.07Zm21,21.43c9.16-6.6,26.77-14.67,24.75,10.46a13.2,13.2,0,0,0-3.5.59s-2.39-7.84-8.8-9.76A35.35,35.35,0,0,0,398.34,427.5Zm37.54,1.29c4.27-4.68,10-11.28,15.27-11.14s11,14.58,11,14.58l-3.57,1a16.81,16.81,0,0,0-9.56-5.36C443,426.86,435.88,428.79,435.88,428.79Zm38.47-12.93c1.56-4,4.31-8.53,7.33-8.71s12.38,10.73,12.38,10.73l-1.37.91s-5.41-3.11-10.27-3.57A21,21,0,0,0,474.35,415.86ZM448.69,212.4c5.56-1.2,9.55-5.75,9.55-5.75l2.3.54s-3.22,7.2-5.49,12.74c-1.05,2.55-3.54,2.14-6.28,1.82-12.26-1.41-13.16-8.82-13.57-11.92C435.2,209.83,443.14,213.59,448.69,212.4Zm22,9.35a42.26,42.26,0,0,0,10.54,3.58c5.6,1,10.09-2.75,10.09-2.75l1.93,1.37s-6.92,6.58-11.13,10.93a3.44,3.44,0,0,1-4.24.55C468.19,229.64,469.83,225,470.68,221.75ZM518.75,350l15.4,10s-3.92,1.72-5.71,1.65-10.31-4.47-11.27-5.84S516.75,353.28,518.75,350Zm-2.06-66a13.6,13.6,0,0,1-1.11-4.6l19-.42.62.83s-13.06,4.26-16.91,7.36C518.34,287.13,517.65,285.89,516.69,284Zm8,39.57c-.74-.37-.14-3.3,0-6.77,0-.74,3-.75,6.14.81s11.46.18,11.74,2.57S525.42,323.89,524.69,323.53ZM504,254.21c.55-2.48,4.86-7.24,7.47-7.43s7.75,2.57,7.75,2.57c-7,4.58-9.26,10-10.54,17.24C503.14,259.34,503.41,256.68,504,254.21Zm8.26,130.29c1.92,2.13,6.18,5.92,6.18,5.92l-2.26,2.68s-9.36-5-13.09-5c0,0,6.78-8.62,6.87-8.9A10.81,10.81,0,0,0,512.22,384.5Z" transform="translate(-43.06 -46.38)"/><path class="cls-29" d="M339.78,257.15l1.13.47,1.22.32a11.29,11.29,0,0,0,2.56.33,15.82,15.82,0,0,0,2.64-.3,14.1,14.1,0,0,0,2.49-1,14.43,14.43,0,0,0,6.4-7.34,10.94,10.94,0,0,0,.81-2.17c.22-.73.41-1.47.59-2.2a28.79,28.79,0,0,0,.42-4.52c-1,1.21-1.71,2.46-2.51,3.66q-.64.87-1.23,1.74l-.57.87c-.2.28-.44.53-.64.8a16.76,16.76,0,0,1-5.4,5.08,9.86,9.86,0,0,1-6.79.78,45.62,45.62,0,0,1-8-2.62A16.09,16.09,0,0,0,339.78,257.15Z" transform="translate(-43.06 -46.38)"/><path class="cls-29" d="M338.2,272.14c0-.76.06-1.52.07-2.28a29.25,29.25,0,0,0-.64-4.49c-.67,1.4-1.1,2.79-1.6,4.14-.28.66-.54,1.32-.79,2l-.35,1c-.13.32-.31.62-.44.93a16.8,16.8,0,0,1-4.08,6.19,9.8,9.8,0,0,1-6.43,2.33,46.39,46.39,0,0,1-8.42-.69,16.15,16.15,0,0,0,8.13,4.29l1.21.2,1.26,0a11.26,11.26,0,0,0,2.56-.27,15.69,15.69,0,0,0,2.51-.9,14.75,14.75,0,0,0,2.2-1.51,14.56,14.56,0,0,0,4.53-8.62A10.56,10.56,0,0,0,338.2,272.14Z" transform="translate(-43.06 -46.38)"/><path class="cls-29" d="M328.1,294.55a31.19,31.19,0,0,0-1.47,5.66,17.27,17.27,0,0,1-1.41,4.5,17.92,17.92,0,0,1-2.76,3.78c-1.16,1.3-2.57,2.54-3.9,4.22a12.3,12.3,0,0,0,6-1.3,10.19,10.19,0,0,0,5.64-11.16A15.86,15.86,0,0,0,328.1,294.55Z" transform="translate(-43.06 -46.38)"/><path class="cls-29" d="M400.17,354.44a36.06,36.06,0,0,0,4.31-6.7,38.05,38.05,0,0,0,2.86-7.67,34.54,34.54,0,0,0,1-8.22,29.8,29.8,0,0,0-1.12-8.32,20,20,0,0,0-4.41-7.48,32.5,32.5,0,0,0-7.18-6,32.46,32.46,0,0,0,4.06-8.52,29.83,29.83,0,0,0,1.31-9.65,22.17,22.17,0,0,0-2.39-10.23,19,19,0,0,0-5.91-6.76,19.86,19.86,0,0,0-8.24-3.28,25.62,25.62,0,0,0-9.35.19,24.74,24.74,0,0,0-7.14,2.45,41.43,41.43,0,0,0-13.6,11.09A29.26,29.26,0,0,0,350,293a19.79,19.79,0,0,0-1.38,8.22,16.78,16.78,0,0,0,2.77,8.29,12.81,12.81,0,0,0,4.25,4.26,11.82,11.82,0,0,0,5,1.71,12.31,12.31,0,0,0,4.69-.45,11.73,11.73,0,0,0,3.73-2,8.72,8.72,0,0,0,2.43-3,9.43,9.43,0,0,0,1-3.14,12.47,12.47,0,0,0-.07-2,4.94,4.94,0,0,0-2.34-3.75,5.27,5.27,0,0,0-2.83-.69,7.49,7.49,0,0,1-2.19,4.41,6.91,6.91,0,0,1-4.55,2,5.81,5.81,0,0,1-5-2.36,8,8,0,0,1-1.6-6.06,18.48,18.48,0,0,1,4.36-10.32,24.39,24.39,0,0,1,8.64-6.49,22.49,22.49,0,0,1,10.32-1.94,17.53,17.53,0,0,1,9.6,3.25,15.53,15.53,0,0,0-4.46,4.56,32.85,32.85,0,0,0-3.18,6.36,52.94,52.94,0,0,0-2.18,7.47q-.86,4-1.38,7.93a19,19,0,0,0-1.76,1.91,12.85,12.85,0,0,0-1.57,2.54,11.69,11.69,0,0,0-.92,2.83,6.18,6.18,0,0,0,.13,2.81,4.21,4.21,0,0,0,.89,1.75,3,3,0,0,0,1.55,1.13c-.9,5.72-1.79,10.73-2.64,15a90.61,90.61,0,0,1-3.39,12.42c-.62,1.65-1.14,3-1.55,4s-.76,1.9-1,2.55a7,7,0,0,0-.49,1.67,4.22,4.22,0,0,0,.06,1.37,2,2,0,0,0,1.4,1.52,4.83,4.83,0,0,0,2.21,0,11.13,11.13,0,0,0,7-5.08,34.41,34.41,0,0,0,4.13-9.26,62.54,62.54,0,0,0,2.07-10.52c.38-3.57.72-6.59,1-9.06l.38-5.73c.93-.51,1.81-1,2.66-1.56s1.61-1.06,2.31-1.6c.52-.35,1-.71,1.54-1.1a12.05,12.05,0,0,0,1.49-1.32,14.28,14.28,0,0,1,4.06,4.36,21.36,21.36,0,0,1,2.45,5.89,23.56,23.56,0,0,1,.7,6.54,27.67,27.67,0,0,1-.91,6.38,35.14,35.14,0,0,1-6.33,11.75,43.5,43.5,0,0,1-10.13,9.19,39.86,39.86,0,0,1-12.32,5.36,28.59,28.59,0,0,1-12.79.33,14.94,14.94,0,0,1-8-4.23,20.39,20.39,0,0,1-4.6-7.08,19.75,19.75,0,0,1-1.31-7.62,18,18,0,0,1,1.17-6.2,8.79,8.79,0,0,1,2.76-3.8,5.12,5.12,0,0,1,2.84-1.17c.65,0,1.22-.09,1.73-.11a2.72,2.72,0,0,0,1.26-.31,1.21,1.21,0,0,0,.58-1,8.54,8.54,0,0,0-.25-2.3,6.26,6.26,0,0,0-1.74-3,7.48,7.48,0,0,0-2.94-1.76,6.07,6.07,0,0,0-3.82.11,9.54,9.54,0,0,0-3.36,2.12,16.9,16.9,0,0,0-2.73,3.37,18.43,18.43,0,0,0-1.84,3.74,21.27,21.27,0,0,0-.79,9.73,29.18,29.18,0,0,0,11.78,19.3A30.47,30.47,0,0,0,357.21,370a35.82,35.82,0,0,0,11.77.59,48.38,48.38,0,0,0,11.84-2.86,51.8,51.8,0,0,0,10.79-5.59A40,40,0,0,0,400.17,354.44Zm-17-37.26q0-1,.09-1.77c0-.53.06-1.11.08-1.76a14.7,14.7,0,0,1,3.1.1A26.89,26.89,0,0,1,383.14,317.18Zm10-17.47a21.77,21.77,0,0,1-.84,4.32c-.13.43-.34,1-.61,1.63a15.3,15.3,0,0,1-1.07,2.08,23.37,23.37,0,0,0-7-1.37,77.16,77.16,0,0,1,1.82-11.74A17.62,17.62,0,0,1,390,286a13.55,13.55,0,0,1,2.09,4.1,24.56,24.56,0,0,1,1,4.79A23.26,23.26,0,0,1,393.1,299.71Z" transform="translate(-43.06 -46.38)"/><path class="cls-29" d="M461.93,293a8.34,8.34,0,0,0-4.92.44,16.62,16.62,0,0,0-5.77,3.78,32.25,32.25,0,0,0-5.64,7.44,46.72,46.72,0,0,0-4.51,11.47c-.07.26-.12.52-.18.78a26.73,26.73,0,0,1-3.19,6.59,30.64,30.64,0,0,1-4.61,5.5,18.23,18.23,0,0,1-5.09,3.41,6.75,6.75,0,0,1-4.44.62,4.13,4.13,0,0,1-3.08-3.14,17.2,17.2,0,0,1-.55-6.26,4.68,4.68,0,0,0,3.48,1.86,8.86,8.86,0,0,0,4.63-1,16.4,16.4,0,0,0,4.85-3.8,22.63,22.63,0,0,0,4-6.41,16,16,0,0,0,1.38-5.34,14.88,14.88,0,0,0-.33-4.67,8.65,8.65,0,0,0-1.74-3.51,6.14,6.14,0,0,0-3-2,8.27,8.27,0,0,0-4.92.45,16.58,16.58,0,0,0-5.77,3.77,32.25,32.25,0,0,0-5.64,7.44,46.72,46.72,0,0,0-4.51,11.47,27.9,27.9,0,0,0-1,6.66,19.81,19.81,0,0,0,.69,5.64,11.83,11.83,0,0,0,2.1,4.2,7.59,7.59,0,0,0,3.26,2.4,10.8,10.8,0,0,0,7.42.09,22,22,0,0,0,7.5-4.39,36.61,36.61,0,0,0,6.63-7.7c.48-.73.93-1.48,1.36-2.24a18,18,0,0,0,.41,1.89,11.83,11.83,0,0,0,2.1,4.2,7.59,7.59,0,0,0,3.26,2.4,10.74,10.74,0,0,0,7.42.09,22,22,0,0,0,7.5-4.39,36.32,36.32,0,0,0,6.63-7.7,43.34,43.34,0,0,0,4.41-8.89l.13.09,4-16a2.76,2.76,0,0,1,1.39,1.74,4.28,4.28,0,0,1-.13,2.36c-.36,1.09-.69,2.08-1,3s-.6,1.83-.91,2.8-.64,2.07-1,3.3-.7,2.68-1.09,4.35q-1.77,7.44-.15,10.92c1.08,2.33,3.09,3.19,6,2.61q4.71-.94,7.8-6.2a52.76,52.76,0,0,0,5.23-14.06l-2.91-2a61.59,61.59,0,0,1-3.27,10.3q-1.72,3.89-3.82,4.3c-.9.18-1.34-.36-1.31-1.64a29.88,29.88,0,0,1,1.1-5.94l3.05-13a4.41,4.41,0,0,0-.66-3.85,6,6,0,0,0-3.63-2.37c-.38-.07-.8-.17-1.26-.29a3.18,3.18,0,0,1-1.14-.54,1.2,1.2,0,0,1-.47-1,3,3,0,0,1,.64-1.65q1.68-2.52,1.21-4.33a3.63,3.63,0,0,0-1.92-2.5,3.88,3.88,0,0,0-3.26.06,5.08,5.08,0,0,0-2.7,3.32,7.76,7.76,0,0,0-.37,4.42,9.67,9.67,0,0,0,1.67,3.7l-4,15.75a26.62,26.62,0,0,1-3,6.07,31,31,0,0,1-4.61,5.5,18.23,18.23,0,0,1-5.09,3.41,6.75,6.75,0,0,1-4.44.62,4.12,4.12,0,0,1-3.08-3.14,17.2,17.2,0,0,1-.55-6.26,4.68,4.68,0,0,0,3.48,1.86,8.86,8.86,0,0,0,4.63-1,16.4,16.4,0,0,0,4.85-3.8,22.49,22.49,0,0,0,4-6.41A16,16,0,0,0,467,303.1a14.58,14.58,0,0,0-.34-4.67,8.63,8.63,0,0,0-1.73-3.51A6.07,6.07,0,0,0,461.93,293Zm-41,25.21a34.69,34.69,0,0,1,5-11.25,14.43,14.43,0,0,1,3.33-3.5,3.18,3.18,0,0,1,3.14-.62c.63.23.83,1.26.62,3.08a15.86,15.86,0,0,1-2.46,6.21,27.18,27.18,0,0,1-3.41,4.44,16.6,16.6,0,0,1-3.21,2.71,3.43,3.43,0,0,1-2.37.7C421,319.8,420.78,319.2,420.93,318.16Zm40.81-18a15.86,15.86,0,0,1-2.46,6.21,27.18,27.18,0,0,1-3.41,4.44,16.6,16.6,0,0,1-3.21,2.71,3.43,3.43,0,0,1-2.37.7c-.61-.13-.83-.73-.68-1.77a34.69,34.69,0,0,1,5-11.25,14.43,14.43,0,0,1,3.33-3.5,3.19,3.19,0,0,1,3.14-.63C461.75,297.27,462,298.3,461.74,300.12Z" transform="translate(-43.06 -46.38)"/><path class="cls-29" d="M462.53,344.17l-1.38.22.81,1.13,1.69,2.33c-4.91-1.94-9.3-1.25-14.58-.41l-1.69.27.81,1.13q.9,1.28,1.8,2.37c-5-2-9.38-1.3-14.7-.45l-1.69.27.81,1.13a45.35,45.35,0,0,0,3,3.76c-6.76-3.11-11.73-1.7-18,.09l-1.65.47.94,1a43.54,43.54,0,0,0,4.08,3.95c-6.76-1-14.63,1.67-24,12.75l-.9,1.07,1.77.43c7.64,1.86,13.86,3.36,21.54.29a41,41,0,0,0-2.22,6.88l-.33,1.36,1.67-.39c4.91-1.15,9-2.12,12.68-5.28-.13.57-.26,1.15-.38,1.76l-.28,1.37,1.66-.45c5-1.36,9.18-2.49,12.78-6-.13.58-.26,1.16-.39,1.77l-.27,1.37,1.65-.45c5-1.36,9.19-2.5,12.8-6-.14.57-.28,1.16-.4,1.77l-.27,1.37,2.35-.64c8.29-2.23,19.22-5,20.75-18.76a2.47,2.47,0,0,0-.15-1.08C476.73,343,472,342.67,462.53,344.17ZM472,365.43c1.2-1,3.06-4.62,3.78-3.89s.32,3.53-1.45,5.87h0c-3.52,2.85-7.9,4.08-12.23,5.25a37.49,37.49,0,0,1,1.26-4.25,34,34,0,0,0,2.93-5.63,15.41,15.41,0,0,1,5.19-4.63l.49-.23a11.44,11.44,0,0,1,2.35-.6,8.55,8.55,0,0,0,1.6,0c.22.05.36.13.38.23.23.93-2.27.54-3.6,3.81s-2.76,4.83-5.87,7.29A55.14,55.14,0,0,0,472,365.43ZM448.38,376a39.24,39.24,0,0,1,1.16-4.09,35.29,35.29,0,0,0,3.23-6.27,12,12,0,0,1,7.84-4.7c.5,0,.83,0,.87.22.23.93-2.27.54-3.6,3.8s-2.76,4.84-5.87,7.3a56,56,0,0,0,5.15-3.22c1.2-1,3.06-4.62,3.78-3.9s.37,2.86-1.09,5.05C456.67,373.53,453,374.72,448.38,376Zm-13.77,3.32c.27-1.22.58-2.34.92-3.38a35,35,0,0,0,4.68-8.35,12,12,0,0,1,6.62-3.33c.51,0,.83,0,.88.22.22.93-2.27.54-3.6,3.8s-2.76,4.84-5.88,7.3a56,56,0,0,0,5.15-3.22c1.21-1,3.06-4.62,3.79-3.9s.37,2.86-1.09,5.05C442.89,376.85,439.19,378,434.61,379.3ZM421,381.91a32.61,32.61,0,0,1,2.66-7,51,51,0,0,0,10.26-7.24l.34-.31c.21,0,.34.11.36.22.19.94-2.29.46-3.73,3.68s-2.93,4.73-6.13,7.08a56.29,56.29,0,0,0,5.26-3c1.24-1,3.22-4.51,3.92-3.75s.27,2.87-1.27,5C429.37,379.77,425.63,380.82,421,381.91Zm-20-7.65c7.22-8.21,13.35-11.16,18.79-11.27,3.63.08,7,1.44,6.82,2.14-.34,1.24-3-.83-6.71,2.15s-6.39,3.9-11.65,4.77a74.25,74.25,0,0,0,8.15-.44c2.07-.4,6.61-3.46,7-2.13s-1.69,4.15-5.29,5.76C412.33,376.86,407.23,375.77,401,374.26Zm32.73-17.85c2.38,1.12,3.77,2.83,3.54,3.76s-3.7-1.14-5.25-1.38a54.57,54.57,0,0,0-6.07-.09c3.94.49,6,1.1,8.8,3.2s4.76.49,5.05,1.4c.05.18-.19.41-.64.64a12.1,12.1,0,0,1-9.21,0c-.69-.36-1.39-.7-2.11-1a30.37,30.37,0,0,1-6.93-5.57C425.51,356.08,429.29,355.18,433.75,356.41Zm41.74-8.53a3.37,3.37,0,0,1,.54,2.8c-.43.74-2.7-1.82-3.89-2.39a47.81,47.81,0,0,0-4.86-1.55c3.05,1.36,4.54,2.34,6.3,4.72s3.71,1.55,3.72,2.35c0,.39-1.91,1.07-3.87,1a35.85,35.85,0,0,0-6.22-5.13c-.9-1.14-1.89-2.46-3-4C469.11,344.9,472.15,344.72,475.49,347.88ZM439.7,365.66h-.13l.27-.1Zm23.57-16.1c2.23,1.39,3.4,3.26,3.06,4.16s-3.54-1.58-5-2a55.85,55.85,0,0,0-6-.82c3.85,1,5.8,1.81,8.35,4.24s4.66,1.06,4.84,2c0,.18-.23.38-.71.56-3.49.9-7.22.55-11.32-2.51l-.9-.71a33.11,33.11,0,0,1-5.1-5.5C455.13,348.24,459,347.8,463.27,349.56Zm-13.78,3.32c2.23,1.39,3.4,3.26,3.07,4.16s-3.54-1.58-5.05-2a55.85,55.85,0,0,0-6-.82c3.85,1,5.8,1.81,8.35,4.24s4.67,1.06,4.85,2c0,.18-.24.38-.71.56-5.13,1.33-10.78-.05-17.33-8.72C441.35,351.56,445.21,351.12,449.49,352.88Z" transform="translate(-43.06 -46.38)"/><path class="cls-29" d="M416.43,284.64a6.51,6.51,0,0,1,3.87.67l-.57-2.95a6.22,6.22,0,0,0-4-.45,5.89,5.89,0,0,0-4.18,2.87,7.86,7.86,0,0,0,1.76,9.69,5.59,5.59,0,0,0,4.82,1.11,7.44,7.44,0,0,0,3.87-2.11l-.55-2.9a15.18,15.18,0,0,1-2,1.62,4.53,4.53,0,0,1-1.51.57,3.51,3.51,0,0,1-2.91-.64,4.23,4.23,0,0,1-1.6-2.72,4.1,4.1,0,0,1,.51-3.1A3.66,3.66,0,0,1,416.43,284.64Z" transform="translate(-43.06 -46.38)"/><path class="cls-29" d="M431.36,283.06a4.06,4.06,0,0,0-1.47-2.52,3.18,3.18,0,0,0-2.69-.65l-4.69.9,2.54,13.29,2.61-.5-1-5.39.76-.15a1.35,1.35,0,0,1,1.07.34,8.43,8.43,0,0,1,1.54,2.16c.66,1.15,1.12,1.92,1.37,2.33l2.87-.55c-.66-1.09-1.36-2.26-2.09-3.5a4.71,4.71,0,0,0-2-2.16A3.57,3.57,0,0,0,431.36,283.06Zm-2.84,1.83a1.44,1.44,0,0,1-1,.6l-1.38.26-.58-3,1.32-.26a1.35,1.35,0,0,1,1.78,1.22A1.53,1.53,0,0,1,428.52,284.89Z" transform="translate(-43.06 -46.38)"/><path class="cls-29" d="M435.1,292.16l2.77-.53.28-2.77,4.7-.9,1.37,2.46,2.81-.54-7.2-12.4-3,.58ZM439,280.94l2.68,4.84-3.24.62Z" transform="translate(-43.06 -46.38)"/><polygon class="cls-29" points="408.56 242.63 407.52 237.18 412.13 236.3 411.67 233.86 407.06 234.74 406.49 231.78 411.1 230.9 410.64 228.46 403.41 229.84 405.95 243.13 408.56 242.63"/><polygon class="cls-29" points="417 229.77 419.07 240.62 421.68 240.12 419.61 229.27 423.41 228.55 422.94 226.11 412.73 228.06 413.2 230.5 417 229.77"/><polygon class="cls-29" points="367.82 222.54 378.44 214.82 389.07 222.54 385.01 210.05 395.63 202.34 382.5 202.34 378.44 189.85 374.39 202.34 361.26 202.34 371.88 210.05 367.82 222.54"/><path class="cls-28" d="M46,478.87l-.38-.13.16.37A3.34,3.34,0,0,0,47.33,481l.36.2-.35.22c-1.58,1-2.72,2.76-3.39,5.31l-.06.22h.23a4.91,4.91,0,0,0,.74,0l.56-.08-.33.46a8.53,8.53,0,0,0-1.32,7.9l0,.07,0,.08a7.12,7.12,0,0,0,1.87,7.25l.06.06v.09A9.12,9.12,0,0,0,48.16,508l.09.1.14-.07.25,0a7.33,7.33,0,0,0,3.78-.55,2.09,2.09,0,0,0,.66-.47l.06-.07h.1a6.64,6.64,0,0,0,4.08-1.61l0,0a9.37,9.37,0,0,0,2.16-1.5A14.47,14.47,0,0,0,60.75,502l0,0,0,0a11.16,11.16,0,0,0,2.46-2.78l.29-.44,0,.15.21-.2c1.18-1.14,3.42-3.75,3.45-5.51l0-.92.41.47q.33.36.66.66l.16.15.11-.2a8,8,0,0,0,.64-6.06l-.12-.46.45.17c.71.29.91.35.92.36l.31.1-.09-.32a7.59,7.59,0,0,0-1.37-2.8c-.32-.3-.61-.55-.86-.77a4.47,4.47,0,0,1-.79-.77,4.55,4.55,0,0,1-.32-1.2l-.25-1.22.69,1,.07.11a4.18,4.18,0,0,0,1.86,2.09l.54.3-.29-.54a5.53,5.53,0,0,1-.47-1.92,6.38,6.38,0,0,0-.82-2.74c-.59-.88-1.73-1.43-3.5-1.67l-.48-.06.35-.35a13.12,13.12,0,0,1,3-2.29c.19-.1.41-.19.65-.29l.48-.19,0,.29c0,.2.06.44.09.7a4.57,4.57,0,0,0,1.27,3.23l.6.56-.31-.76a3.45,3.45,0,0,1-.27-1.22v0l0,0,0-.56a9.2,9.2,0,0,1,.75-2.66l.12-.27.12,0c1.18-.28,2.43-.51,3.64-.74h0c1-.18,1.87-.35,2.66-.53l.69-.16-.45.55A8.78,8.78,0,0,0,77,474l0,.11-.12,0a1.1,1.1,0,0,0-.37.16,2.68,2.68,0,0,1-1.86.28,3.16,3.16,0,0,0-2.89,1.08c-.13.11-.24.22-.36.31l-.49.4,1-.14c1.29-.18,2.14-.3,2.73.19a2,2,0,0,0,1.34.38h.28l0,.28a13.09,13.09,0,0,0,1.12,6.28,21.5,21.5,0,0,1,.88,4.45l.06.51-.43-.27a5,5,0,0,0-5.8,0,15.13,15.13,0,0,1,2.56.68,2.83,2.83,0,0,1,.79.48l.42.36-.55.07a4.69,4.69,0,0,0-4,3.29l0,.1-.09.06a11.15,11.15,0,0,0-4.55,6.06l-.11.36.86-.34-.26.55a6.46,6.46,0,0,0-.1,5.55l0,.07,0,.07c-.31,1.78-.3,4.1,2.23,7.7l0,.06v.06c.12,1.89,1,3.25,3,4.56l.06,0,0,.07a7.55,7.55,0,0,0,3.44,3.31l.09,0,.18-.11.13.17c.93,1.22,2.36,1.92,4.66,2.27h.07l.06.06a5.23,5.23,0,0,0,4,1.48,12.45,12.45,0,0,0,2-.18l.1,0,.06-.15.06,0a13.53,13.53,0,0,0,3.49-3.61,1.57,1.57,0,0,0,.09-.94l0-.1.06-.08a3.81,3.81,0,0,0,.75-1.66v-.08l.07-.06c2-1.7,2.42-6.55,2-7.61,0,0,0,0,0,0l0-.11.07-.11c1.4-2.06,1.08-5.54.53-6.74l-.06-.11a3.2,3.2,0,0,0-1.36-1.65l.24-.42c.3.16.56.29.82.4l.29.13,0-.31c-.63-4.23-1.75-5.69-3.36-6.68l-.09-.05,0-.1-.06-.24-.09-.37.38.08a2.36,2.36,0,0,0,.92,0A6,6,0,0,0,89.59,492l-.74-.45h.82l-.08-.23c-.85-2.65-2.38-3.54-3.51-3.82a5.8,5.8,0,0,0-3.79.54l-.24.12-.09-.25a44.23,44.23,0,0,0-1.87-4.23c-1.39-2.83-1.8-4.94-1.34-6.87l.08-.31.28.16a5.32,5.32,0,0,0,1.18.43c.81.24,1.65.48,1.94,1.1a16.35,16.35,0,0,1,.61,1.62,10.37,10.37,0,0,0,1.33,2.93l.33.44,0-.56c0-.55,0-1.13,0-1.68a7.13,7.13,0,0,0-.14-2.57,5.19,5.19,0,0,0-1.6-1.75l-.41-.33.51-.1a7.28,7.28,0,0,1,1.85-.1l.38,0-.22-.3a5,5,0,0,0-4.46-1.67l-.58.06.37-.45a14.78,14.78,0,0,1,3.47-2.93l.27-.18c2.87-1.94,5.55-6.55,5.06-8a1.82,1.82,0,0,0-1.33-1.27,1.19,1.19,0,0,0-1,.11l0,.05v.07c0,.07-.33,6.54-7.9,7.78-3.45.56-5.68,1-7.47,1.47l-.12,0-.09-.07a21.22,21.22,0,0,1-2.64-3.16l-.27-.36a9,9,0,0,0-3.86-2.24l-.66-.2.63.66c1.19,1.24,2.53,2.64,2.77,3.85a5.91,5.91,0,0,0,.57,1.57l.17.35h-.39a1.79,1.79,0,0,1-.55,0,3.25,3.25,0,0,1-.64-.29,4.52,4.52,0,0,0-2-.67l-.82,0,.7.32a10.5,10.5,0,0,1,2.07,1.4l.35.29h0l.32.21-.33.2a12.29,12.29,0,0,0-3.19,2.82l-.4.49,0-.63a4.73,4.73,0,0,0-.21-1.42c-.31-.85-2.49-2.75-4.26-4.12l-.63-.49.36.71A13.31,13.31,0,0,1,59.39,474l.12.85-.55-.66a8.26,8.26,0,0,0-1.29-1.3c-.86-.64-2.54-.6-4.17-.55a16.38,16.38,0,0,1-2.15,0l-.43-.06.26.34a8.78,8.78,0,0,0,.8.91,15.07,15.07,0,0,0,2.4,1.47l2.08,1.07-2.26-.62a11,11,0,0,0-1.25-.29,7.32,7.32,0,0,0-3.1.19l-.24.08.49.65.79,1.05.22.3-.36.08c-.42.1-.87.23-1.39.4s-.89.32-1.26.46l-.11-.22h0l.08.23C47,478.79,46.38,479,46,478.87Z" transform="translate(-43.06 -46.38)"/><polygon class="cls-28" points="32.23 426.26 32.23 426.26 32.23 426.26 32.23 426.26"/><path class="cls-29" d="M93.82,510.49a8.57,8.57,0,0,0,.55-7l-.06-.11a3.45,3.45,0,0,0-1.45-1.76,9.15,9.15,0,0,0,.83.41l.7.32-.12-.76c-.66-4.42-1.85-5.85-3.47-6.85l-.06-.24a1.84,1.84,0,0,0,1.31,0,6.43,6.43,0,0,0-2.33-2.65H90l-.18-.56c-.89-2.75-2.49-3.68-3.68-4a5.86,5.86,0,0,0-4,.56,42,42,0,0,0-1.87-4.26c-1.35-2.75-1.77-4.84-1.32-6.7a6.08,6.08,0,0,0,1.23.45c.76.22,1.55.45,1.79,1a14.23,14.23,0,0,1,.61,1.6,10.7,10.7,0,0,0,1.35,3l.8,1,0-1.31c0-.55,0-1.12,0-1.67a6.85,6.85,0,0,0-.16-2.67,5.46,5.46,0,0,0-1.67-1.85,7.27,7.27,0,0,1,1.79-.1l.9.05-.54-.72a5.24,5.24,0,0,0-4.67-1.76,14.64,14.64,0,0,1,3.41-2.88l.28-.18c2.78-1.89,5.72-6.6,5.15-8.26a2.06,2.06,0,0,0-1.51-1.43,1.39,1.39,0,0,0-1.18.18l-.11.12v.16c0,.07-.33,6.34-7.7,7.55-3.44.56-5.7,1-7.49,1.48a21.42,21.42,0,0,1-2.59-3.11l-.28-.37c-1-1.38-3.86-2.28-4-2.32l-1.55-.49,1.28,1.34c1.16,1.22,2.47,2.59,2.7,3.73a6.37,6.37,0,0,0,.59,1.64,3.13,3.13,0,0,1-.5,0,4.65,4.65,0,0,1-.58-.28,4.67,4.67,0,0,0-2.13-.69h0l-1.85,0,1.68.76a10.07,10.07,0,0,1,2,1.37,4.19,4.19,0,0,0,.39.3h0a12.63,12.63,0,0,0-3.25,2.88,5.49,5.49,0,0,0-.23-1.49c-.43-1.16-3.69-3.73-4.34-4.23l-1.49-1.16.86,1.68a13.15,13.15,0,0,1,1.19,3.82,9,9,0,0,0-1.33-1.35c-.93-.69-2.66-.64-4.33-.6a14.4,14.4,0,0,1-2.11,0l-1-.13.61.8a9.71,9.71,0,0,0,.82.94,15.37,15.37,0,0,0,2.46,1.5c-.46-.12-.91-.23-1.29-.29a7.82,7.82,0,0,0-3.21.2l-.56.18.67.9.81,1.08c-.48.11-.95.25-1.4.4l-1.3.47a4.6,4.6,0,0,1-1.89.48l-.91-.31.39.88a3.6,3.6,0,0,0,1.63,2c-1.36.84-2.7,2.45-3.49,5.46l-.14.51h.63a5.19,5.19,0,0,0,.68-.05,8.69,8.69,0,0,0-1.35,8.12,7.33,7.33,0,0,0,1.93,7.49A9.37,9.37,0,0,0,48,508.12l0,0h0l.16.19.25-.13.16,0a6.44,6.44,0,0,0,.88.06,7.51,7.51,0,0,0,3-.63,2.42,2.42,0,0,0,.74-.53,6.78,6.78,0,0,0,4.22-1.67,9.89,9.89,0,0,0,2.22-1.56A14.31,14.31,0,0,0,61,502.16a11.65,11.65,0,0,0,2.52-2.84v0l.49-.47c.14-.14,3.49-3.38,3.53-5.67v-.3a8.73,8.73,0,0,0,.68.68l.39.35.25-.46a8.26,8.26,0,0,0,.67-6.24c.72.29.92.35.93.36l.75.24-.21-.75a8.06,8.06,0,0,0-1.45-2.91c-.32-.31-.61-.56-.87-.78a4.48,4.48,0,0,1-.73-.72,6.08,6.08,0,0,1-.29-1.12l.05.09a4.44,4.44,0,0,0,2,2.19l1.27.72-.69-1.28a5.71,5.71,0,0,1-.44-1.84,6.39,6.39,0,0,0-.86-2.84c-.62-.94-1.84-1.53-3.66-1.78a13.19,13.19,0,0,1,2.9-2.25,6.34,6.34,0,0,1,.62-.27l.21-.09c0,.2.05.44.08.69a4.81,4.81,0,0,0,1.35,3.38l1.42,1.32-.75-1.79a3.48,3.48,0,0,1-.25-1.14l1-.15c1.22-.17,2-.29,2.54.13a2.12,2.12,0,0,0,1.51.44,13.37,13.37,0,0,0,1.14,6.41,23.86,23.86,0,0,1,.86,4.38c-3.09-1.92-5.26-.55-6.6.31a18.25,18.25,0,0,1,3.15.77,2.91,2.91,0,0,1,.71.45A5,5,0,0,0,71,492.88a11.4,11.4,0,0,0-4.65,6.2l-.27.84.77-.3a6.67,6.67,0,0,0-.1,5.75c-.4,2.22-.07,4.56,2.26,7.88.11,1.75.84,3.25,3.08,4.74a7.68,7.68,0,0,0,3.54,3.43l.21.12.12-.07c.89,1.17,2.3,2,4.81,2.36a5.45,5.45,0,0,0,4.12,1.55,13.12,13.12,0,0,0,2-.18l.24,0,.08-.22a13.64,13.64,0,0,0,3.57-3.69,1.91,1.91,0,0,0,.11-1.09,4.23,4.23,0,0,0,.79-1.76c2-1.73,2.54-6.67,2.1-7.87Zm-26.47-9.81a5.61,5.61,0,0,0,.82,3.87c.63-.64.61-1.26,2.15-2a6.51,6.51,0,0,0-2.09,3.22c0,.13-.08.25-.13.37A6.28,6.28,0,0,1,67.35,500.68Zm.15-2.25A10.73,10.73,0,0,1,71,493.92a3.35,3.35,0,0,0,.07.53,12.56,12.56,0,0,0-1.21,1.21,18.5,18.5,0,0,0-1.17,1.51,15.26,15.26,0,0,1,1.46-1.2,12.66,12.66,0,0,1,1.18-.78,3.2,3.2,0,0,0,.47.68,2.41,2.41,0,0,1-.37.44A30,30,0,0,1,67.5,498.43Zm9.32-21.69.06-.08a1.73,1.73,0,0,0,.19-.31,5.78,5.78,0,0,0,.28-.63,4.74,4.74,0,0,1-.52.31l-.53.15A1.62,1.62,0,0,1,75,476a2.68,2.68,0,0,0-2.12-.45,2.48,2.48,0,0,1,1.71-.34,3.19,3.19,0,0,0,2.21-.35c.14-.08.21-.11.25-.1h0l.2.17a1.9,1.9,0,0,1,.33.53,1.9,1.9,0,0,0,.06-.68,2,2,0,0,0-.09-.41,8.56,8.56,0,0,1,2.08-2.76l1.53-1.39-2,.68a33.17,33.17,0,0,1-4,.91c-1.22.23-2.47.47-3.66.75l-.33-.46-.12.57h0l-.08.21-.13.33a9.5,9.5,0,0,0-.78,2.64,8.06,8.06,0,0,1-.14-1,3,3,0,0,0-.33-1.4l0-.05a1.77,1.77,0,0,0-.47-1.22l-.26-.37a7.59,7.59,0,0,1-1.15-2.48,6.82,6.82,0,0,0-1.77-2.91,5.39,5.39,0,0,1,1.83,1.31l.27.37a15.67,15.67,0,0,0,3,3.42l.16.09h0a1.53,1.53,0,0,0,.39.14,2.34,2.34,0,0,0,.65,0,2.09,2.09,0,0,1-.4-.3c1.72-.44,3.9-.86,7.12-1.38,7.09-1.16,8.21-6.7,8.38-8a1,1,0,0,1,.51.1,1.29,1.29,0,0,1,.69.81,1.26,1.26,0,0,1,0,.56,1.09,1.09,0,0,1-1-.63,4.32,4.32,0,0,1-.12,2c-.34.86-.94,2.17-4.65,5.38a8.91,8.91,0,0,0,2.79-1.68,11.23,11.23,0,0,1-1.88,1.68l-.27.18a13.27,13.27,0,0,0-4.26,4l-.58,1L79.6,475a4.87,4.87,0,0,1,4.13.57,7,7,0,0,0-2.18.47l-.42.14a5.75,5.75,0,0,1-2.34-.16l-.38-.09-.12.37c-.67,2.19-.28,4.57,1.27,7.72l.17.34a28.27,28.27,0,0,1,.7,2.76s-.56-1.34-1.72-3.7c1.88,5.29.66,4.6-.24,2.39a13.5,13.5,0,0,0-.62-2.59A12.29,12.29,0,0,1,76.82,476.74Zm-12.64,0c-.29,0-.59,0-.91,0a11.9,11.9,0,0,1,5.3-4.25,1.21,1.21,0,0,1,.41.86c-.16.08-.34.15-.51.22a6.58,6.58,0,0,0-.72.32A15,15,0,0,0,64.18,476.71Zm4,2.34a5.8,5.8,0,0,1,.73,2.49l.09.66a9.18,9.18,0,0,0-1.2-2.55,4.85,4.85,0,0,0-3.13-2.06C66.52,477.77,67.69,478.26,68.22,479.05Zm-4.31,18.7a17.59,17.59,0,0,1-.39-2.31c.07-.24.14-.48.2-.72a5,5,0,0,0,.51,1.67A7.41,7.41,0,0,0,66.68,492c0,.42,0,.82,0,1.15C66.65,494.55,65,496.62,63.91,497.75ZM61.07,501c0-.16,0-.34,0-.51s.11-.17.17-.26c.83-1.25,1.12-2,1-2.53a2,2,0,0,0,.43-.43,3,3,0,0,0,.2-.29c.1.53.21,1,.29,1.29A12.28,12.28,0,0,1,61.07,501Zm-8.22-25.19a12.34,12.34,0,0,1,1.55.38,5.49,5.49,0,0,0-.84.42,4.18,4.18,0,0,0-1-.47,8.33,8.33,0,0,0-1.73-.33A6.65,6.65,0,0,1,52.85,475.76Zm4.47-2.35A10.39,10.39,0,0,1,59,475.22a18.11,18.11,0,0,0-2.55-1.41,10.45,10.45,0,0,0-3.83-.82l.9,0C55,472.93,56.62,472.89,57.32,473.41Zm5,2.93-.28-.15c-.2-.11-.4-.22-.61-.31a6.13,6.13,0,0,0-.24-1.86,9.59,9.59,0,0,0-1.72-2.48,12.08,12.08,0,0,1,2.67,2.72A6.6,6.6,0,0,1,62.32,476.34ZM54,505.5a4.87,4.87,0,0,0,0-.54,9.82,9.82,0,0,0,2.25-1.89l.61,0h.32A5,5,0,0,1,54,505.5Zm3.54-7.61L57.41,494a6.82,6.82,0,0,0,2.5-1.9c0,.7-.11,1.41-.2,2.08l-.09.62.62-.16.44-.13h0a5.34,5.34,0,0,1-.55.82,8,8,0,0,1-.67.77c-.25.24-.5.48-.77.7.32-.15.62-.32.93-.5a8.42,8.42,0,0,0,.87-.6,5.25,5.25,0,0,0,.82-.75,3.61,3.61,0,0,0,.56-.87,6,6,0,0,0,.72-.33l-.12.3a6,6,0,0,1-.58,1.09,4.86,4.86,0,0,1-.82.94,8.91,8.91,0,0,1-1,.77,9.14,9.14,0,0,0,1.18-.57,5.58,5.58,0,0,0,1.07-.81,5.47,5.47,0,0,0,.5-.58,5.61,5.61,0,0,1-.79,1.78C61.29,497.67,58.79,497.88,57.49,497.89Zm-7.83,7.8a4.89,4.89,0,0,1-.56-3.13c.59-.73,1.28-1.56,1.87-2.26.11.28.23.57.36.86l.17.35.85-.32c.58-.23,1.16-.45,1.72-.69-.39.42-.76.84-1.13,1.26s-.77.89-1.16,1.33l-.58.66c-.2.22-.39.44-.61.64a9.93,9.93,0,0,0,1.45-1c.46-.38.92-.75,1.36-1.14l.56-.47a5.86,5.86,0,0,0-.84,1.83,5.39,5.39,0,0,0,1.54-.17A10.3,10.3,0,0,1,49.66,505.69Zm1-25.56a5,5,0,0,1,.65-.77,4.23,4.23,0,0,0-.69,3.77,16.6,16.6,0,0,0,2.83-1.65l0,0a27.8,27.8,0,0,1-3.57,3.2A6.38,6.38,0,0,1,50.68,480.13ZM54,477.26a3.56,3.56,0,0,0-.94,2.08,22.83,22.83,0,0,0,3.4-1.83c.2-.13.71-.42,1.14-.74a5.63,5.63,0,0,1-1.29,1.72,28.73,28.73,0,0,1-4.3,2.12,4.26,4.26,0,0,1,1.8-3.23A1.22,1.22,0,0,1,54,477.26Zm7.47-.4a4.82,4.82,0,0,0-.36.43,8,8,0,0,0-.64,1,11.5,11.5,0,0,0-.5,1.07c-.14.37-.28.73-.39,1.11.19-.34.4-.67.62-1s.45-.62.69-.91a7.37,7.37,0,0,1,.79-.79,2.89,2.89,0,0,1,.45-.33A7.33,7.33,0,0,1,61,480.64,4.08,4.08,0,0,0,63.54,478a20.16,20.16,0,0,1,2.33,3.46,13.79,13.79,0,0,0-.09-1.51,3.53,3.53,0,0,1,.27,3.23c-.23-.53-.61-1.29-1.22-2.46-.16-.33-.33-.65-.49-1L64,479l-.37.74c-.58,1.14-2.3,1.9-4.73,2.11a6.37,6.37,0,0,1-.53-4.6,4.32,4.32,0,0,0,.3-.7,1,1,0,0,1,.31-.36A4.44,4.44,0,0,1,61.51,476.86Zm4.88,11.45a4.39,4.39,0,0,1-1.18,2.76,10,10,0,0,0,.24-4.55c0-.26,0-.53-.07-.79,0-.1.08-.19.11-.29A7.93,7.93,0,0,1,66.39,488.31ZM47.81,502.84c-2.41-2.52-2.72-4.3-2.46-5.86l0,0a6.67,6.67,0,0,0,2.4,4.52,5.68,5.68,0,0,1,.95-2.1A11.49,11.49,0,0,0,50.26,498a11.65,11.65,0,0,0,.37,1.4C49.79,500.4,48.58,501.86,47.81,502.84Zm1.11-19.74v.24a7.76,7.76,0,0,0-1.74,7,3.3,3.3,0,0,0,1-.61,6,6,0,0,0,0,1.11,4.61,4.61,0,0,1-1.39.88A7.72,7.72,0,0,1,48.92,483.1Zm11.7,10.6c.14-1.28.19-2.64.21-3.8a2.38,2.38,0,0,0,.84-.74,3.06,3.06,0,0,0,.29-.6c.14,0,.27-.1.41-.15a12.55,12.55,0,0,1-.08,1.36c0,.34-.1.69-.16,1a6.06,6.06,0,0,1-.28,1,6.5,6.5,0,0,0,.52-.93c.15-.33.29-.66.41-1a12.2,12.2,0,0,0,.56-1.95,5.94,5.94,0,0,0,.75-.52c0,.22,0,.44,0,.67a9.24,9.24,0,0,1-.29,1.52,10.09,10.09,0,0,1-.56,1.47,4.32,4.32,0,0,1-.91,1.29,4.65,4.65,0,0,0,1.15-1.15,9.54,9.54,0,0,0,.84-1.41,9.36,9.36,0,0,0,.46-1.14C64.76,490.81,64.09,492.6,60.62,493.7Zm-4,4c-1,1.34-2.62,2-4.6,2.72l-.12.05a9.3,9.3,0,0,1-.84-6.21,4.86,4.86,0,0,0,.91-1.15,5.78,5.78,0,0,0,.7-.7,10.86,10.86,0,0,0,.88,2.34,9.74,9.74,0,0,0-.33,1c-.11.38-.21.77-.31,1.15-.18.77-.35,1.54-.5,2.31.31-.72.64-1.44,1-2.13.18-.35.35-.7.54-1s.34-.61.53-.89c.33-.09.66-.19,1-.3a4.27,4.27,0,0,1,.07.71,3.54,3.54,0,0,1-.16,1.21,3.88,3.88,0,0,1-.57,1.13c-.25.36-.56.67-.85,1,.35-.27.72-.53,1-.84a4.17,4.17,0,0,0,.84-1.1,4.23,4.23,0,0,0,.46-1.35,5,5,0,0,0,.07-1.1l.21-.08ZM53,483.14c-.1.44-.18.88-.26,1.33a27.69,27.69,0,0,0-.33,3.26,27.88,27.88,0,0,1,.83-3.14c.16-.47.33-.94.51-1.4A19.4,19.4,0,0,0,55,486.92a14,14,0,0,1-3,2,6.84,6.84,0,0,1-1.26-3.76C51.44,484.58,52.33,483.8,53,483.14Zm8.36,2.68a7.55,7.55,0,0,0,2-4.54h0c.46,2.17-.81,4.77-1.73,5.87a25,25,0,0,0,2.39-.8,6,6,0,0,1-3.57,1.74,28.23,28.23,0,0,1,.6-5.74l.43-.12A11.22,11.22,0,0,0,61.39,485.82ZM45.73,495a3.7,3.7,0,0,1,1.52-2.51,2.07,2.07,0,0,0,.34-.15,2.86,2.86,0,0,0,.33.61,18.59,18.59,0,0,0-.3,3.91,10.92,10.92,0,0,1-.36-3.76,5.7,5.7,0,0,0-1,2c-.14.85.9,2.51,1.62,3.19A10,10,0,0,1,49,494.27l.74.9.34-.2a8.24,8.24,0,0,0,0,1.8A7.49,7.49,0,0,1,47.93,499C46.4,497.48,45.66,496.13,45.73,495ZM50.17,487a7.56,7.56,0,0,0,.29.78,4.14,4.14,0,0,0-.27,1A9,9,0,0,0,50.1,490a18.4,18.4,0,0,0,.09,2.23A18.74,18.74,0,0,1,50.6,490a10.15,10.15,0,0,1,.33-1l.06-.14c.15.26.31.53.49.8l.21.32.33-.17.53-.28a6.12,6.12,0,0,0,0,1.67A5.69,5.69,0,0,1,50,493.39C48.39,490.25,49,488.38,50.17,487Zm7.09,3.29A9.1,9.1,0,0,1,56.5,487a11.43,11.43,0,0,0,2.83-1.59l0,.31c-.11.41-.23.81-.37,1.2a16.3,16.3,0,0,1-1.23,2.73,16,16,0,0,0,1.61-2.38c0,.54.12,1.16.24,1.86l.88-.18.4-.07C60.33,489.37,59.12,489.79,57.26,490.29Zm2.63-6.9c-.48,1.32-2.71,2.5-4.23,3a13.55,13.55,0,0,1-1.18-4.77h0a4.73,4.73,0,0,1,.18-1.26l.08,0c.14.38.28.72.39,1a12,12,0,0,0,1.78-.71c0,.39-.07.78-.11,1.17-.12,1.15-.26,2.29-.42,3.44.32-1.11.63-2.23.92-3.35l.27-1.06a9.91,9.91,0,0,0,.66,1.69l.12.25.28,0c.5,0,1-.09,1.44-.16A4.05,4.05,0,0,1,59.89,483.39ZM54.3,494.31a7.06,7.06,0,0,1-.75-5.34,11.89,11.89,0,0,0,2.12-1.57,11.16,11.16,0,0,0,.74,3,21.85,21.85,0,0,1-1.47,2.84,22,22,0,0,0,2.06-2l.11,0,.56-.15c-.13.33-.26.71-.41,1.2a11.58,11.58,0,0,0,2.53-1.66c-.07.19-.15.37-.24.56C58.91,492.43,57.15,493.49,54.3,494.31Zm1,7.81a9.14,9.14,0,0,1,2.45-3.39,12.89,12.89,0,0,0,3-.4l-.31.3c-.37.35-.76.69-1.15,1s-.82.63-1.25.92a12.59,12.59,0,0,1-1.32.81,15.18,15.18,0,0,0,1.45-.59c.48-.22.94-.46,1.4-.72s.88-.51,1.3-.79c-.09.13-.18.29-.29.45C58.92,502.25,57.84,502.48,55.27,502.12ZM44.15,496.4l.21,0a1.42,1.42,0,0,0,.29-.1,6,6,0,0,0,.85,5l0,.23A6.41,6.41,0,0,1,44.15,496.4ZM52,477.94a4.4,4.4,0,0,0-1.12.73c-.32.08-.66.18-1,.3a7.88,7.88,0,0,1-3.19.49,11.18,11.18,0,0,0,1.63-.52l1.27-.45A9.93,9.93,0,0,1,52,477.94Zm-2.75,3.35-.1.37a9.15,9.15,0,0,0-4.42,4.63C45.75,482.86,47.57,481.63,49.22,481.29Zm-3.72,7.37a9.14,9.14,0,0,0-1.09,6.55,7.88,7.88,0,0,1,1.18-7.61A9.09,9.09,0,0,0,45.5,488.66Zm.79,14A7.23,7.23,0,0,0,48,505.74a13.47,13.47,0,0,1,.2-1.89,6.16,6.16,0,0,0,.86,2.51l.14.22.26,0,.15,0c-.42.29-.84.55-1.23.77A8.24,8.24,0,0,1,46.29,502.63Zm5.22,3.48a10.79,10.79,0,0,0,1.6-.67,1.66,1.66,0,0,1-.93,1.49,6.81,6.81,0,0,1-2.45.55A14.38,14.38,0,0,0,51.51,506.11Zm7.15-2.36a5.91,5.91,0,0,0,.34-1.17,5.28,5.28,0,0,0,1.19-1c0,.08,0,.15,0,.21a13.93,13.93,0,0,1-1.09,1.54A3.4,3.4,0,0,1,58.66,503.75Zm10-16.29a11.3,11.3,0,0,1,.2,1.64,10,10,0,0,1,0,1.64,7.17,7.17,0,0,1-.35,1.59,7.14,7.14,0,0,0,.19-1.6,10.77,10.77,0,0,0-.12-1.6,11.25,11.25,0,0,0-.35-1.55,9.32,9.32,0,0,0-.57-1.47l.44-.73A15.82,15.82,0,0,1,68.63,487.46ZM71.34,473Zm17.34,17.61A13.39,13.39,0,0,0,85.07,488a4.32,4.32,0,0,1,.87.11A4.14,4.14,0,0,1,88.68,490.63Zm1.6,5.78a63.39,63.39,0,0,1-5.47-3.68l0,0a24.52,24.52,0,0,1,4.83,2.58,20.23,20.23,0,0,0-.87-2.62,3.21,3.21,0,0,0-.19-.31,4.26,4.26,0,0,1,.9,1.11A14.09,14.09,0,0,1,90.28,496.41Zm3.33,7.45a7.8,7.8,0,0,1-.32,5.88,2,2,0,0,0-.42-.29,7.69,7.69,0,0,0,.12-5,4.07,4.07,0,0,0,.13-1.5,3.67,3.67,0,0,1,.43.77Zm-1.88,13.23a5.69,5.69,0,0,0-.18-.84,11,11,0,0,0,.92-5.81.77.77,0,0,0,.07-.16,1.13,1.13,0,0,1,.46.55A10.42,10.42,0,0,1,91.73,517.09Zm-.81,1.07c-.14,1.52-2,3-3,3.67a12.58,12.58,0,0,0-.59-3.3,7.55,7.55,0,0,0,2.24-3.23v0c0,.27,0,.53,0,.8s0,.53,0,.79a9.75,9.75,0,0,1-.28,1.6,9.62,9.62,0,0,1-.52,1.54,9.67,9.67,0,0,0,.77-1.46,10.59,10.59,0,0,0,.53-1.59c.08-.27.12-.55.18-.82l.06-.42c0,.15,0,.31,0,.46a8,8,0,0,1,0,1,8.19,8.19,0,0,1-.12,1,5.46,5.46,0,0,1-.26,1,5.41,5.41,0,0,0,.5-.88,6.61,6.61,0,0,0,.38-1,1.21,1.21,0,0,0,0-.18A3.62,3.62,0,0,1,90.92,518.16Zm-11.4-29.11a12,12,0,0,1,.69,1.91,18.91,18.91,0,0,1,.51,2.51,20.5,20.5,0,0,0,0-2.6,14.16,14.16,0,0,0-.27-1.91h.06c1,0,2.56.33,2.45,1.72a9.51,9.51,0,0,1-1.47,3.41s2.59-1.55,2.84-3.37a1.69,1.69,0,0,0,0-.45,2.34,2.34,0,0,1,.1,1.26c-.14.9-1.22,1.79-2.17,2.57a7.38,7.38,0,0,0-1.52,1.46,11.55,11.55,0,0,0-1.79-1c-1.35-.67-2.61-1.31-2.58-2.38C76.44,490,77.45,489.32,79.52,489.05Zm6,32.49Zm-.59,0-.11.13c-4-.79-5.11-1.66-5.52-2.42a9.5,9.5,0,0,0,2.12.21c.25,0,.52,0,.79,0l.34,0,0-.23c.19.21.38.42.59.62a7.92,7.92,0,0,0,.69.61,4.75,4.75,0,0,0,.76.5,4.16,4.16,0,0,1-.61-.65,7.21,7.21,0,0,1-.51-.72c-.16-.25-.31-.51-.45-.76s-.21-.42-.31-.63c.06-.42.11-.87.14-1.32a29.66,29.66,0,0,1,2.44,2.6l.23.31.33-.21.22-.15A3.43,3.43,0,0,1,85,521.57ZM82.19,523a10.29,10.29,0,0,1-4-2.25,17.2,17.2,0,0,0,3.31,1.64,3.84,3.84,0,0,0,0-.68l.15,0a3.37,3.37,0,0,0,.49.94C82.16,522.78,82.18,522.88,82.19,523Zm-8.7-6.59c0-.34,0-.67,0-1a10,10,0,0,0,.72,1.07,10.93,10.93,0,0,0,2,1.91,10.22,10.22,0,0,1-1.4-2.28,6.9,6.9,0,0,1-.41-1.21c0-.13-.06-.27-.08-.4a6.31,6.31,0,0,0,.64.31,6,6,0,0,0,2.43,3.69c0,.29-.07.61-.1,1A6.28,6.28,0,0,1,73.49,516.39Zm-3.62-5c0-.13,0-.26,0-.39a8.19,8.19,0,0,0,2.27,3.59c.06-.68.15-1.37.24-2a3.18,3.18,0,0,0,.43.67c-.07.77-.14,1.75-.16,2.77A8.9,8.9,0,0,1,69.87,511.37Zm20.92-4.91A39.41,39.41,0,0,0,89,501.78c.09-.12.21-.27.35-.47.43,1.09,1.63,3.62,1.68,4.08a7.68,7.68,0,0,0,1.28-2.6A4.26,4.26,0,0,1,90.79,506.46Zm-5,12.2c-.8-1-2.35-2.47-2.81-2.91a8.93,8.93,0,0,0-.62-3.54c.4.25.83.51,1.3.77l.28.15.22-.22a24.24,24.24,0,0,0,1.64-1.85c0,.23.09.47.12.71a17,17,0,0,1,.2,1.75c0,.59.06,1.18,0,1.78a15.17,15.17,0,0,1-.1,1.78,17.71,17.71,0,0,0,.36-1.76c.09-.6.16-1.2.2-1.8s.07-1.21.06-1.82,0-1-.07-1.45c.31.75.59,1.58.84,2.35a11.71,11.71,0,0,1,0,2,12.23,12.23,0,0,1-.38,2.06,12.46,12.46,0,0,0,.79-2c0-.13.08-.27.11-.4.06.2.11.37.14.51l.14.51.47-.25.1-.06A7.18,7.18,0,0,1,85.79,518.66Zm-9-24.39a11.25,11.25,0,0,0,1.44.83,17.07,17.07,0,0,0,.82,2.41c.18.41.36.81.56,1.21a5.92,5.92,0,0,0,.68,1.14,6.42,6.42,0,0,1-.44-1.23c-.12-.42-.22-.85-.31-1.27-.11-.58-.21-1.16-.27-1.73a4.63,4.63,0,0,1,1.31.92l.7.79,0-1c0-.36.78-1,1.46-1.56l.35-.28a2.33,2.33,0,0,1,.32.85c.2,1.55-1.5,4.6-2.84,6.1-4.11-1.76-5.28-3.9-5.56-5.34A16.11,16.11,0,0,0,76.8,494.27Zm7.38-.77c.26.29.52.57.79.84l1.17,1.19a8.14,8.14,0,0,1,1,1.24,4.1,4.1,0,0,1,.6,1.52,4.26,4.26,0,0,0-.37-1.64,9.65,9.65,0,0,0-.88-1.45l-.14-.19c1.23,1.18,2.74,2.69,2.87,3.83a5.4,5.4,0,0,0,.77-1.56c.19.94-.71,2.59-1.47,3.64a18,18,0,0,0-4.44-4.07,4.42,4.42,0,0,0,.17-1.65,3.15,3.15,0,0,0-.51-1.31Zm-1.82,24.75Zm-.49.4c-4.18.14-5.37-1.91-5.9-3.49l.66.19a5.93,5.93,0,0,0,.44.71,4.21,4.21,0,0,0,.72.8,3.25,3.25,0,0,0,.91.55,9.81,9.81,0,0,0,1,.29c-.3-.16-.61-.3-.88-.48a2.77,2.77,0,0,1-.71-.65,3.82,3.82,0,0,1-.48-.83,1.19,1.19,0,0,1-.08-.2l.54.09a4.06,4.06,0,0,0,.46.61,4.29,4.29,0,0,0,.7.65,5.59,5.59,0,0,0,.79.51,4.71,4.71,0,0,0,.85.34,4.81,4.81,0,0,1-.73-.52,4.1,4.1,0,0,1-.62-.63,4.22,4.22,0,0,1-.48-.71l-.06-.13.15,0,.3,0,.12-.27a16.93,16.93,0,0,0,1-4.63c.12.11.25.21.39.32s.19.42.29.63l0,0C82.44,513.76,82.2,516.57,81.87,518.65Zm-9-7.11a13.35,13.35,0,0,0,1.33.56,11.68,11.68,0,0,1,.5-3.62l0,.11a10.9,10.9,0,0,0,.8,1.93,11.28,11.28,0,0,0,1.13,1.74,9.06,9.06,0,0,0,1.42,1.48,9.11,9.11,0,0,1-1.21-1.62,11.15,11.15,0,0,1-.87-1.81,9.82,9.82,0,0,1-.52-1.91,9,9,0,0,1-.15-1.16l.13-.17a14.18,14.18,0,0,0,2.2.75l.3.08.07-.11a7.56,7.56,0,0,0,1.73,2.43l0,.3v0a20.61,20.61,0,0,1-.83,4.35C74.22,514.35,73.13,512.7,72.89,511.54Zm.67-8.57a2.16,2.16,0,0,1-.32-1.43,11.14,11.14,0,0,1,1-2.46l.14-.28a18.78,18.78,0,0,0,.37,2.59,11.23,11.23,0,0,0,.64,2,9.71,9.71,0,0,0,1,1.83,9.17,9.17,0,0,1-.8-1.92,11.54,11.54,0,0,1-.38-2,19.22,19.22,0,0,1,0-2.84,10.87,10.87,0,0,0,4.3,3.35,17.91,17.91,0,0,1-1.94,5.11c-3.23-.9-4.9-2.51-5.46-3.56a5.91,5.91,0,0,0,1,.28l1,.14Zm10.23,9.12c-3.73-2.13-4.74-3.79-5.2-5.26a19.07,19.07,0,0,0,1.72-4.65h0c.05.54.12,1.07.22,1.6a16.4,16.4,0,0,0,.53,2.09,20,20,0,0,0,.77,2c.28.65.61,1.27.91,1.91-.22-.67-.47-1.33-.67-2a18.26,18.26,0,0,1-.51-2,17.86,17.86,0,0,1-.27-2.06c0-.51,0-1,0-1.52l.62.59c1.25,1.64,3.37,4.36,3.45,6a11,11,0,0,0,2.14-3.54C87.41,507.25,86.14,509.63,83.79,512.09Zm2.07-6.17a29.8,29.8,0,0,0-4.16-4.51,15.71,15.71,0,0,0,2-3.38,8.87,8.87,0,0,1,.55.81,13.62,13.62,0,0,1,.74,1.42,10.09,10.09,0,0,1,.8,3.13,10.29,10.29,0,0,0-.32-3.3,12,12,0,0,0-.54-1.6h0a10.7,10.7,0,0,1,3.1,3.25A11.82,11.82,0,0,1,85.86,505.92ZM70.44,503.8a9.71,9.71,0,0,0,.23,1.95,7.9,7.9,0,0,0,.53,1.53,4.68,4.68,0,0,0,.9,1.32,4.66,4.66,0,0,1-.66-1.41,7.11,7.11,0,0,1-.26-1.52,8.34,8.34,0,0,1,.12-2.06,7.23,7.23,0,0,0,3,2.89v0h0v0a9.84,9.84,0,0,0-1,3.91c-2.39-1-3.72-2.14-4-3.51A4.14,4.14,0,0,1,70.44,503.8ZM88.74,514a34.42,34.42,0,0,0-1.67-4.78,7.41,7.41,0,0,0,1.11-5.44c.14-.31.26-.59.35-.84.38.88.67,1.59.9,2.17a19.22,19.22,0,0,1,.31,2.37,7.15,7.15,0,0,1,0,1.31,6.68,6.68,0,0,1-.29,1.31,7.4,7.4,0,0,0,.63-1.22c.09-.22.16-.45.23-.68l.55-.54c.2-.19.4-.4.59-.6,0,.12,0,.24,0,.36a7.65,7.65,0,0,1-.23,1.71,7.94,7.94,0,0,1-.62,1.66,6.7,6.7,0,0,1-1,1.49,7,7,0,0,0,1.3-1.31,8.36,8.36,0,0,0,1-1.6,8.57,8.57,0,0,0,.61-1.81,1.6,1.6,0,0,0,0-.21A10.83,10.83,0,0,1,88.74,514ZM70.38,497.9a6.68,6.68,0,0,0,0,.89,6.26,6.26,0,0,0,.34,1.69,6.11,6.11,0,0,1,.08-1.66,4.35,4.35,0,0,1,.41-1.18,5.49,5.49,0,0,0,0,.81,8.29,8.29,0,0,0,.4,2.23,8.09,8.09,0,0,1,0-2.2,4.74,4.74,0,0,1,.73-1.92l.08-.11a6.94,6.94,0,0,0,.85.6l.2.11.2-.1a6.83,6.83,0,0,0,.72-.43,1,1,0,0,0,0,.14c-.25.62-.6,1.34-.89,2a10,10,0,0,0-1.09,2.77,3.55,3.55,0,0,0,.1,1.13,3.73,3.73,0,0,1-2.37-2.07,3.58,3.58,0,0,1-.17-2.41Zm3.92-7.41a4.65,4.65,0,0,0-.59.92,4.17,4.17,0,0,0-.39,1.24,4.09,4.09,0,0,0,0,1.26,3.9,3.9,0,0,1,.73-2.29,5,5,0,0,1,1.67-1.43l.22,0a4.76,4.76,0,0,0-.43,1.94,2.19,2.19,0,0,0,.64,1.6,11.82,11.82,0,0,1-2.72,2.49,3.37,3.37,0,0,1-1.52-1.63,12.32,12.32,0,0,0,1.09.85,4.24,4.24,0,0,1,1.21-4.91ZM68.74,510c0-.7,0-1.39,0-2a4.33,4.33,0,0,0,.36.62c0,.88-.07,2-.09,3.13a10.92,10.92,0,0,1-1.46-3.57A19,19,0,0,0,68.74,510Zm23.75-9.54A13.11,13.11,0,0,0,91.24,497c0-.2-.1-.59-.19-1,1,.85,1.76,2.15,2.26,5C93,500.79,92.76,500.63,92.49,500.47Zm-7.41-10.59a2.18,2.18,0,0,0-.33-.54,9,9,0,0,1,4,1.61l-.76-.06A10.27,10.27,0,0,0,85.08,489.88ZM71.69,516.24c0,.15,0,.29,0,.43A4.74,4.74,0,0,1,70,514,10.56,10.56,0,0,0,71.69,516.24Zm1,.93.09.08.41.33a6.36,6.36,0,0,0,1.66,1.6l0,.06a8.7,8.7,0,0,0,.35.94A5.57,5.57,0,0,1,72.71,517.17ZM76,519.81c.25.11.51.23.79.34a5.62,5.62,0,0,0,2.66,2.54A4.76,4.76,0,0,1,76,519.81ZM82.48,524l.49.16.06-.52v-.05a7.7,7.7,0,0,0,1.86,1,5,5,0,0,1-2.69-.67Zm4.32.28q-3.12-.75-4.07-2.18c.64.17,1.37.33,2.21.5l.24,0,.15-.18.16-.17c.09.14.17.27.27.4a5.19,5.19,0,0,0,.77.85,4.45,4.45,0,0,1-.39-1,5.62,5.62,0,0,1-.15-.8,4.15,4.15,0,0,0,.88-1.54,15.82,15.82,0,0,1,.17,3.38,13.66,13.66,0,0,0,2.29-1.59A16.37,16.37,0,0,1,86.8,524.25Zm-3-45.63a6.6,6.6,0,0,1,.1,2.31.76.76,0,0,1,0,.15c-.18-.46-.35-.94-.51-1.42a16.23,16.23,0,0,0-.64-1.69,2.25,2.25,0,0,0-1.28-1.08l.33-.11.11,0A6.39,6.39,0,0,1,83.83,478.62Zm-13-2.5a8.6,8.6,0,0,1,.73-2.59l.06-.15c1.18-.28,2.43-.52,3.65-.75,1-.18,1.88-.35,2.68-.53a9,9,0,0,0-1.18,1.84,1.46,1.46,0,0,0-.44.19,2.49,2.49,0,0,1-1.71.25,3.44,3.44,0,0,0-3.09,1.14,4.31,4.31,0,0,1-.34.3Zm2.42,11.77c1.26-.5,2.48-.57,4.45.72a3,3,0,0,0-.41.19A4.83,4.83,0,0,0,73.28,487.89Z" transform="translate(-43.06 -46.38)"/><path class="cls-28" d="M754.46,479.77l-.38-.13.16.37a3.38,3.38,0,0,0,1.53,1.89l.36.2-.35.22c-1.58,1-2.72,2.76-3.39,5.31l-.06.22h.23a4.91,4.91,0,0,0,.74,0l.56-.08-.33.46a8.53,8.53,0,0,0-1.32,7.9l0,.07,0,.08a7.12,7.12,0,0,0,1.87,7.25l.06.07v.09a9.12,9.12,0,0,0,2.45,5.21l.09.11.15-.08.24,0a7.33,7.33,0,0,0,3.78-.55,2.09,2.09,0,0,0,.66-.47l.07-.07h.09a6.58,6.58,0,0,0,4.08-1.61l0,0a9.66,9.66,0,0,0,2.16-1.51,14.1,14.1,0,0,0,1.22-1.74l0,0,0,0a11,11,0,0,0,2.46-2.78l.29-.44,0,.15.21-.2c1.18-1.14,3.43-3.75,3.46-5.5v-.93l.42.47a8.13,8.13,0,0,0,.65.66l.16.15.11-.2a8,8,0,0,0,.65-6.05l-.13-.47.45.18.92.35.31.1-.09-.32a7.44,7.44,0,0,0-1.37-2.8c-.32-.3-.61-.55-.86-.77a4.15,4.15,0,0,1-.79-.77,4.55,4.55,0,0,1-.32-1.2l-.25-1.22.69,1,.07.11a4.16,4.16,0,0,0,1.87,2.09l.53.3-.29-.54a5.53,5.53,0,0,1-.47-1.92,6.28,6.28,0,0,0-.82-2.74c-.59-.88-1.73-1.43-3.49-1.67l-.49-.06.35-.35a13.12,13.12,0,0,1,3-2.29c.19-.1.41-.19.65-.29l.48-.19.06.29c0,.2.06.44.08.7A4.61,4.61,0,0,0,779,479l.61.56-.32-.75a3.51,3.51,0,0,1-.27-1.23v0l0,0,0-.56a8.61,8.61,0,0,1,.75-2.66l.11-.27.12,0c1.18-.28,2.43-.52,3.64-.75h0c1-.19,1.87-.36,2.66-.54l.69-.16-.45.55a8.85,8.85,0,0,0-1.15,1.8l-.05.1-.12,0a1.34,1.34,0,0,0-.37.16,2.59,2.59,0,0,1-1.86.28,3.21,3.21,0,0,0-2.89,1.08c-.13.11-.24.22-.36.31l-.49.4,1-.13c1.29-.19,2.14-.31,2.73.18a2,2,0,0,0,1.34.38h.28l0,.28a13,13,0,0,0,1.13,6.29,22.14,22.14,0,0,1,.87,4.44l.07.51-.44-.27a5,5,0,0,0-5.8,0,15.13,15.13,0,0,1,2.56.68,2.89,2.89,0,0,1,.79.49l.42.35-.55.07a4.71,4.71,0,0,0-4,3.29l0,.11-.09.05a11.14,11.14,0,0,0-4.54,6.06l-.12.36.86-.34-.26.55a6.46,6.46,0,0,0-.1,5.55l0,.07v.07c-.32,1.79-.31,4.1,2.22,7.7l0,.06v.07c.11,1.88,1,3.24,3,4.55l.06,0,0,.07a7.47,7.47,0,0,0,3.43,3.31l.09,0,.18-.1.13.17c.93,1.21,2.36,1.91,4.66,2.26l.08,0,0,0a5.23,5.23,0,0,0,4,1.48,12.43,12.43,0,0,0,2-.18h.1l.06-.16.06,0a13.24,13.24,0,0,0,3.49-3.61,1.57,1.57,0,0,0,.09-.94l0-.1.06-.08a3.82,3.82,0,0,0,.75-1.65v-.09l.07-.06c2-1.7,2.42-6.55,2-7.61l0,0,0-.12.07-.11c1.4-2.06,1.08-5.53.53-6.74l-.06-.11a3.24,3.24,0,0,0-1.36-1.65l.24-.42c.31.16.57.29.82.4l.29.14,0-.32c-.63-4.23-1.75-5.69-3.36-6.68l-.08-.05,0-.1c0-.08,0-.16,0-.23l-.1-.38.38.08a2.67,2.67,0,0,0,.92.06,6.05,6.05,0,0,0-2.11-2.32l-.75-.45h.82l-.08-.23c-.85-2.65-2.38-3.54-3.5-3.81a5.77,5.77,0,0,0-3.8.53l-.24.13-.09-.26a44.92,44.92,0,0,0-1.86-4.23c-1.39-2.82-1.81-4.94-1.35-6.87l.08-.31.28.16a5.32,5.32,0,0,0,1.18.43c.81.24,1.65.48,1.94,1.11a15.23,15.23,0,0,1,.61,1.61,10.37,10.37,0,0,0,1.33,2.93l.33.44,0-.55c0-.56,0-1.13.05-1.69a6.93,6.93,0,0,0-.14-2.57,5.28,5.28,0,0,0-1.6-1.75l-.41-.33.51-.1a7.28,7.28,0,0,1,1.85-.1l.38,0-.22-.3a5,5,0,0,0-4.46-1.67l-.58.07.37-.46a15,15,0,0,1,3.47-2.92l.27-.19c2.88-1.94,5.55-6.55,5.06-8a1.82,1.82,0,0,0-1.33-1.27,1.12,1.12,0,0,0-.95.12l-.05,0v.07c0,.07-.33,6.54-7.9,7.78-3.45.56-5.68,1-7.47,1.47l-.12,0-.09-.07a21.08,21.08,0,0,1-2.64-3.15l-.27-.37a9,9,0,0,0-3.86-2.24l-.66-.2.63.66c1.19,1.24,2.53,2.64,2.77,3.85a6.15,6.15,0,0,0,.57,1.57l.18.35h-.39a2,2,0,0,1-.56,0,3.25,3.25,0,0,1-.64-.29,4.47,4.47,0,0,0-2-.66h-.82l.71.32a10.71,10.71,0,0,1,2.06,1.4l.36.29h0l.32.21-.32.2a12.17,12.17,0,0,0-3.2,2.82l-.4.49,0-.63a4.87,4.87,0,0,0-.22-1.41c-.31-.86-2.49-2.76-4.26-4.13l-.63-.49.36.71a13.31,13.31,0,0,1,1.22,3.89l.12.85-.55-.66a8.26,8.26,0,0,0-1.29-1.3c-.86-.64-2.54-.6-4.17-.55a16.38,16.38,0,0,1-2.15,0l-.42-.06.25.34a8.78,8.78,0,0,0,.8.91,15.07,15.07,0,0,0,2.4,1.47L764.9,477l-2.26-.63a11,11,0,0,0-1.25-.29,7.38,7.38,0,0,0-3.1.19l-.24.08.49.65.79,1.05.23.3-.37.08a14.41,14.41,0,0,0-1.39.41l-1.26.45-.11-.22h0l.08.23C755.41,479.69,754.82,479.9,754.46,479.77Z" transform="translate(-43.06 -46.38)"/><polygon class="cls-28" points="740.67 427.16 740.67 427.16 740.67 427.16 740.67 427.16"/><path class="cls-29" d="M802.26,511.39a8.57,8.57,0,0,0,.55-7l0-.11a3.46,3.46,0,0,0-1.46-1.75c.26.14.54.28.83.41l.7.31-.12-.76c-.65-4.42-1.85-5.85-3.47-6.85l-.06-.23a1.88,1.88,0,0,0,1.31-.06,6.4,6.4,0,0,0-2.33-2.64h.28l-.18-.55c-.89-2.76-2.49-3.69-3.68-4a5.89,5.89,0,0,0-4,.56,45,45,0,0,0-1.88-4.26c-1.35-2.75-1.77-4.84-1.32-6.7a6.07,6.07,0,0,0,1.23.46c.76.22,1.55.44,1.79,1a14.23,14.23,0,0,1,.61,1.6,10.9,10.9,0,0,0,1.35,3l.8,1,0-1.31c0-.54,0-1.12,0-1.67a7.06,7.06,0,0,0-.15-2.67,5.7,5.7,0,0,0-1.68-1.85,7.27,7.27,0,0,1,1.79-.1l.9.05-.54-.72a5.24,5.24,0,0,0-4.67-1.76,14.62,14.62,0,0,1,3.42-2.87l.27-.19c2.79-1.88,5.72-6.59,5.15-8.26a2.08,2.08,0,0,0-1.51-1.43,1.36,1.36,0,0,0-1.18.19l-.11.11v.16c0,.07-.32,6.34-7.7,7.55-3.44.56-5.7,1-7.49,1.48a21.42,21.42,0,0,1-2.59-3.11l-.28-.37c-1-1.38-3.86-2.28-4-2.32l-1.55-.48,1.28,1.34c1.16,1.21,2.47,2.59,2.7,3.73a6.84,6.84,0,0,0,.59,1.63,2.25,2.25,0,0,1-.5,0,3.77,3.77,0,0,1-.57-.27,4.63,4.63,0,0,0-2.14-.7h0l-1.85,0,1.69.76a10,10,0,0,1,2,1.37l.39.31h0a12.63,12.63,0,0,0-3.25,2.88,5.62,5.62,0,0,0-.23-1.49c-.43-1.16-3.69-3.73-4.34-4.23l-1.49-1.15.86,1.67a13.25,13.25,0,0,1,1.19,3.82,8.42,8.42,0,0,0-1.33-1.34c-.93-.7-2.66-.65-4.33-.6a15.76,15.76,0,0,1-2.11,0l-1-.13.61.8a8,8,0,0,0,.83.94,15.25,15.25,0,0,0,2.45,1.51,11.66,11.66,0,0,0-1.29-.3,7.85,7.85,0,0,0-3.21.2l-.56.18.68.9c.3.4.56.76.81,1.08a12.15,12.15,0,0,0-1.41.41c-.49.16-.92.32-1.3.46a4.26,4.26,0,0,1-1.89.48l-.91-.31.39.88a3.6,3.6,0,0,0,1.63,2c-1.36.84-2.7,2.45-3.49,5.46l-.14.51.53,0h.11a5.16,5.16,0,0,0,.67-.05,8.69,8.69,0,0,0-1.35,8.12,7.34,7.34,0,0,0,1.93,7.5,9.37,9.37,0,0,0,2.51,5.35l0,.05h0l.16.19.25-.13.16,0a5.09,5.09,0,0,0,.88.06,7.51,7.51,0,0,0,3-.63,2.57,2.57,0,0,0,.74-.52,6.9,6.9,0,0,0,4.23-1.68,10.36,10.36,0,0,0,2.22-1.56,16.28,16.28,0,0,0,1.25-1.77,11.87,11.87,0,0,0,2.52-2.85v0l.49-.48c.14-.13,3.49-3.38,3.53-5.67v-.3a8.73,8.73,0,0,0,.68.68l.39.35.25-.46a8.21,8.21,0,0,0,.67-6.24c.72.29.92.35.93.36l.75.24-.21-.75a8.24,8.24,0,0,0-1.44-2.91c-.33-.31-.62-.56-.87-.78a3.91,3.91,0,0,1-.74-.72,6.08,6.08,0,0,1-.29-1.12.41.41,0,0,1,0,.09,4.42,4.42,0,0,0,2,2.19l1.26.72-.69-1.28a5.71,5.71,0,0,1-.44-1.84,6.39,6.39,0,0,0-.86-2.84c-.62-.94-1.83-1.53-3.66-1.78a13.5,13.5,0,0,1,2.9-2.25,5.66,5.66,0,0,1,.63-.27l.2-.08c0,.19.06.43.08.68a4.81,4.81,0,0,0,1.35,3.38l1.42,1.32-.75-1.79a3.23,3.23,0,0,1-.24-1.14l1-.14c1.22-.18,2-.29,2.54.13a2.17,2.17,0,0,0,1.51.44,13.35,13.35,0,0,0,1.14,6.4,24,24,0,0,1,.86,4.38c-3.09-1.92-5.26-.54-6.6.31a17.71,17.71,0,0,1,3.15.78,2.59,2.59,0,0,1,.71.44,4.93,4.93,0,0,0-4.17,3.48,11.41,11.41,0,0,0-4.66,6.2l-.27.84.77-.3a6.71,6.71,0,0,0-.1,5.75c-.4,2.22-.06,4.56,2.26,7.88.11,1.75.85,3.25,3.08,4.74a7.68,7.68,0,0,0,3.54,3.43l.21.12.12-.07c.89,1.17,2.3,2,4.81,2.36a5.46,5.46,0,0,0,4.13,1.55,13.1,13.1,0,0,0,2-.18l.24,0,.08-.21a13.67,13.67,0,0,0,3.57-3.7,1.9,1.9,0,0,0,.11-1.09,4.1,4.1,0,0,0,.79-1.76c2-1.73,2.54-6.67,2.1-7.87A.08.08,0,0,1,802.26,511.39Zm-26.47-9.81a5.61,5.61,0,0,0,.82,3.87c.64-.64.61-1.25,2.15-2a6.51,6.51,0,0,0-2.09,3.22l-.12.37A6.32,6.32,0,0,1,775.79,501.58Zm.16-2.24a10.61,10.61,0,0,1,3.45-4.52,3.21,3.21,0,0,0,.07.53,12.56,12.56,0,0,0-1.21,1.21,18.5,18.5,0,0,0-1.17,1.51,15.26,15.26,0,0,1,1.46-1.2,12.66,12.66,0,0,1,1.18-.78,3.2,3.2,0,0,0,.47.68,3.25,3.25,0,0,1-.36.45A34.45,34.45,0,0,1,776,499.34Zm9.31-21.7.06-.08a1.44,1.44,0,0,0,.19-.31,5,5,0,0,0,.28-.63,4,4,0,0,1-.52.31l-.53.16a1.68,1.68,0,0,1-1.34-.19,2.72,2.72,0,0,0-2.12-.45,2.43,2.43,0,0,1,1.71-.33,3.24,3.24,0,0,0,2.21-.36c.15-.08.21-.11.25-.1h0a1.12,1.12,0,0,1,.2.18,1.71,1.71,0,0,1,.33.52,1.9,1.9,0,0,0,.06-.68,2.17,2.17,0,0,0-.09-.41,8.93,8.93,0,0,1,2.08-2.76l1.53-1.39-2,.68a33.17,33.17,0,0,1-4,.91c-1.21.23-2.47.47-3.66.75l-.33-.45-.12.56h0l-.08.21c0,.09-.08.2-.13.33a9.48,9.48,0,0,0-.78,2.65,10.48,10.48,0,0,1-.14-1.05,3,3,0,0,0-.33-1.4l0-.05a1.73,1.73,0,0,0-.47-1.21l-.26-.37a7.81,7.81,0,0,1-1.15-2.49,7,7,0,0,0-1.76-2.91,5.44,5.44,0,0,1,1.82,1.31l.28.37a15.14,15.14,0,0,0,3,3.42l.15.09h0a1,1,0,0,0,.39.14,1.76,1.76,0,0,0,.65,0,1.68,1.68,0,0,1-.39-.3c1.72-.43,3.89-.86,7.11-1.38,7.09-1.16,8.21-6.7,8.38-8.05a1.17,1.17,0,0,1,.51.1,1.26,1.26,0,0,1,.69.82.59.59,0,1,1-1-.08,4.17,4.17,0,0,1-.12,2c-.34.86-.94,2.17-4.65,5.38A8.91,8.91,0,0,0,794,469.4a11.23,11.23,0,0,1-1.88,1.68l-.27.18a13.38,13.38,0,0,0-4.26,4l-.58,1,1.07-.35a4.83,4.83,0,0,1,4.13.56,7,7,0,0,0-2.18.47l-.42.14a5.7,5.7,0,0,1-2.33-.16l-.39-.09-.12.38c-.67,2.18-.28,4.56,1.27,7.71l.17.34a28.27,28.27,0,0,1,.7,2.77s-.56-1.35-1.72-3.71c1.88,5.29.66,4.6-.24,2.39a14.44,14.44,0,0,0-.61-2.59A12.31,12.31,0,0,1,785.26,477.64Zm-12.63,0c-.3,0-.6,0-.92,0a12,12,0,0,1,5.3-4.25,1.18,1.18,0,0,1,.41.86l-.5.22a6.8,6.8,0,0,0-.72.32A14.84,14.84,0,0,0,772.63,477.61Zm4,2.34a5.85,5.85,0,0,1,.73,2.49q0,.35.09.66a9,9,0,0,0-1.2-2.54,4.83,4.83,0,0,0-3.13-2.07C775,478.67,776.13,479.16,776.66,480Zm-4.31,18.7a17.59,17.59,0,0,1-.39-2.31c.08-.24.14-.48.2-.72a4.88,4.88,0,0,0,.51,1.67,7.41,7.41,0,0,0,2.45-4.36c0,.42,0,.82,0,1.16C775.09,495.45,773.41,497.52,772.35,498.65Zm-2.84,3.21c0-.17,0-.34,0-.52l.17-.25c.83-1.26,1.13-2,.95-2.54a2.25,2.25,0,0,0,.44-.43c.07-.09.13-.19.2-.29.09.53.2,1,.28,1.29A12,12,0,0,1,769.51,501.86Zm-8.21-25.2a12.67,12.67,0,0,1,1.54.38,5.49,5.49,0,0,0-.84.42,4.18,4.18,0,0,0-1-.47,8.26,8.26,0,0,0-1.72-.33A7,7,0,0,1,761.3,476.66Zm4.46-2.35a10.39,10.39,0,0,1,1.67,1.81,19.2,19.2,0,0,0-2.55-1.41,10.45,10.45,0,0,0-3.83-.82l.9,0C763.41,473.83,765.06,473.79,765.76,474.31Zm5,2.93-.29-.15-.61-.31a6.5,6.5,0,0,0-.23-1.86,10.32,10.32,0,0,0-1.72-2.48,12.42,12.42,0,0,1,2.66,2.72A6.9,6.9,0,0,1,770.77,477.24Zm-8.38,29.17a5.15,5.15,0,0,0,0-.55,9.84,9.84,0,0,0,2.26-1.89l.6,0h.33A5,5,0,0,1,762.39,506.41Zm3.54-7.61-.08-3.85a6.84,6.84,0,0,0,2.5-1.91c0,.7-.1,1.41-.2,2.08l-.08.63.61-.17.44-.12h0a5.27,5.27,0,0,1-.54.82,9.85,9.85,0,0,1-.68.77c-.24.24-.5.48-.76.7.31-.15.62-.32.92-.5a9.78,9.78,0,0,0,.88-.6,5.67,5.67,0,0,0,.81-.75,3.26,3.26,0,0,0,.56-.87,6,6,0,0,0,.72-.33c0,.1-.07.2-.12.3a6,6,0,0,1-.58,1.09,4.86,4.86,0,0,1-.82.94,8.12,8.12,0,0,1-1,.77,10.74,10.74,0,0,0,1.19-.56,6,6,0,0,0,1.06-.82,6.91,6.91,0,0,0,.51-.57,6,6,0,0,1-.79,1.77C769.73,498.57,767.23,498.79,765.93,498.8Zm-7.83,7.79a4.87,4.87,0,0,1-.56-3.12c.6-.74,1.28-1.57,1.87-2.27.11.28.23.57.36.86l.17.35.85-.32c.58-.22,1.16-.45,1.72-.69l-1.13,1.26L760.22,504l-.58.66c-.2.22-.39.44-.61.64a10.6,10.6,0,0,0,1.46-1c.45-.38.91-.75,1.35-1.13l.56-.48a5.86,5.86,0,0,0-.84,1.83,5.06,5.06,0,0,0,1.54-.17A10.3,10.3,0,0,1,758.1,506.59Zm1-25.56a5,5,0,0,1,.66-.77,4.2,4.2,0,0,0-.7,3.77,16,16,0,0,0,2.83-1.65l0,.06a27.13,27.13,0,0,1-3.57,3.19A6.38,6.38,0,0,1,759.12,481Zm3.36-2.87a3.63,3.63,0,0,0-.94,2.08,21.94,21.94,0,0,0,3.4-1.83c.2-.13.71-.42,1.14-.73a5.58,5.58,0,0,1-1.29,1.71,27.8,27.8,0,0,1-4.3,2.12,4.26,4.26,0,0,1,1.8-3.23Zm7.48-.4c-.13.14-.25.28-.37.43a8,8,0,0,0-.64,1,11.5,11.5,0,0,0-.5,1.07c-.14.37-.28.74-.39,1.11a10.84,10.84,0,0,1,.62-1c.22-.32.45-.63.69-.92a7.37,7.37,0,0,1,.79-.79,3.45,3.45,0,0,1,.45-.33,7.3,7.3,0,0,1-1.14,3.17,4.09,4.09,0,0,0,2.51-2.64,20.46,20.46,0,0,1,2.34,3.46s0-.81-.09-1.51a3.53,3.53,0,0,1,.26,3.23c-.23-.52-.61-1.29-1.22-2.46-.16-.33-.33-.65-.49-1l-.38-.74-.37.74c-.58,1.14-2.3,1.9-4.73,2.11a6.37,6.37,0,0,1-.53-4.6,5,5,0,0,0,.31-.7.89.89,0,0,1,.3-.36A4.46,4.46,0,0,1,770,477.76Zm4.87,11.45a4.44,4.44,0,0,1-1.18,2.77,10.09,10.09,0,0,0,.24-4.56c0-.26,0-.53-.07-.79l.12-.29A8.12,8.12,0,0,1,774.83,489.21Zm-18.58,14.54c-2.41-2.52-2.72-4.31-2.46-5.86l0,0a6.67,6.67,0,0,0,2.4,4.51,5.93,5.93,0,0,1,.95-2.1,11.49,11.49,0,0,0,1.54-1.44,13.89,13.89,0,0,0,.37,1.4C758.23,501.3,757,502.77,756.25,503.75ZM757.36,484v.24a7.77,7.77,0,0,0-1.74,7,3.3,3.3,0,0,0,1-.61,6,6,0,0,0,.05,1.11,4.61,4.61,0,0,1-1.39.88A7.74,7.74,0,0,1,757.36,484Zm11.7,10.6c.14-1.28.2-2.63.21-3.8a2.38,2.38,0,0,0,.84-.74,3.06,3.06,0,0,0,.29-.6,3.39,3.39,0,0,0,.41-.15,12.4,12.4,0,0,1-.08,1.36c0,.35-.09.69-.16,1a6.06,6.06,0,0,1-.28,1,5.28,5.28,0,0,0,.52-.93c.15-.33.29-.66.41-1a11.9,11.9,0,0,0,.56-2,5.94,5.94,0,0,0,.75-.52c0,.22,0,.44,0,.67a9,9,0,0,1-.29,1.52,9.67,9.67,0,0,1-.56,1.47,4.32,4.32,0,0,1-.91,1.29,4.49,4.49,0,0,0,1.15-1.15,9.54,9.54,0,0,0,.84-1.41,9.36,9.36,0,0,0,.46-1.14C773.2,491.71,772.53,493.51,769.06,494.6Zm-4,4c-1,1.34-2.62,2-4.6,2.72l-.12.05a9.3,9.3,0,0,1-.84-6.21,4.86,4.86,0,0,0,.91-1.15,5.78,5.78,0,0,0,.7-.7,11.42,11.42,0,0,0,.88,2.34c-.13.34-.23.67-.33,1s-.21.77-.31,1.15c-.18.77-.35,1.54-.5,2.31.32-.72.64-1.43,1-2.13.17-.35.34-.7.53-1s.34-.6.53-.89c.33-.09.66-.19,1-.3a4.29,4.29,0,0,1,.08.71,4.11,4.11,0,0,1-.16,1.21,3.91,3.91,0,0,1-.58,1.13,11.53,11.53,0,0,1-.84,1,13.19,13.19,0,0,0,1-.84,4.13,4.13,0,0,0,1.3-2.45,5,5,0,0,0,.07-1.1l.21-.08ZM761.47,484c-.1.44-.18.89-.25,1.33a27.72,27.72,0,0,0-.34,3.26,28.45,28.45,0,0,1,.83-3.14c.16-.47.33-.94.51-1.4a19.18,19.18,0,0,0,1.18,3.73,14.31,14.31,0,0,1-3,2,6.86,6.86,0,0,1-1.26-3.77C759.88,485.48,760.77,484.7,761.47,484Zm8.36,2.68a7.57,7.57,0,0,0,2-4.54h0c.46,2.17-.81,4.77-1.73,5.87a25,25,0,0,0,2.39-.8,6.13,6.13,0,0,1-3.57,1.75,28.33,28.33,0,0,1,.6-5.75l.43-.12A11.22,11.22,0,0,0,769.83,486.72Zm-15.66,9.13a3.7,3.7,0,0,1,1.52-2.51,2.07,2.07,0,0,0,.34-.15,2.86,2.86,0,0,0,.33.61,19.28,19.28,0,0,0-.3,3.91,11.41,11.41,0,0,1-.36-3.76,5.7,5.7,0,0,0-1,2c-.13.85.9,2.51,1.62,3.19a10,10,0,0,1,1.16-3.92l.74.89.34-.2a8.92,8.92,0,0,0,0,1.8,7.49,7.49,0,0,1-2.15,2.21C754.84,498.38,754.1,497,754.17,495.85Zm4.44-8c.08.25.18.51.29.78a4.7,4.7,0,0,0-.27,1,8.75,8.75,0,0,0-.09,1.14,18.4,18.4,0,0,0,.09,2.23,17.17,17.17,0,0,1,.42-2.16,8.64,8.64,0,0,1,.32-1l.06-.14c.15.26.31.53.49.8l.21.32.33-.17c.18-.09.36-.18.53-.28a6.13,6.13,0,0,0,0,1.67,5.58,5.58,0,0,1-2.47,2.18C756.83,491.15,757.46,489.29,758.61,487.9Zm7.09,3.29a9.1,9.1,0,0,1-.76-3.3,12.11,12.11,0,0,0,2.83-1.59c0,.09,0,.2,0,.3-.11.41-.23.81-.37,1.21a17.4,17.4,0,0,1-1.22,2.72,17.74,17.74,0,0,0,1.61-2.38c0,.55.12,1.16.24,1.86l.87-.18.4-.07C768.77,490.27,767.56,490.69,765.7,491.19Zm2.63-6.9c-.48,1.33-2.71,2.5-4.23,3a13.46,13.46,0,0,1-1.17-4.78h0a4.38,4.38,0,0,1,.17-1.27l.08,0c.15.38.28.72.39,1a12,12,0,0,0,1.78-.71c0,.39-.07.78-.11,1.17-.12,1.15-.26,2.3-.42,3.44.32-1.11.63-2.22.92-3.35.1-.35.18-.71.27-1.06a9.91,9.91,0,0,0,.66,1.69l.12.25h.28c.51,0,1-.1,1.44-.17A3.48,3.48,0,0,1,768.33,484.29Zm-5.59,10.93a7.14,7.14,0,0,1-.75-5.35,11.53,11.53,0,0,0,2.12-1.57,11.25,11.25,0,0,0,.75,3,23.24,23.24,0,0,1-1.48,2.84,22,22,0,0,0,2.06-2l.11,0,.56-.15c-.13.33-.26.71-.41,1.2a11.35,11.35,0,0,0,2.53-1.66,5.55,5.55,0,0,1-.24.56C767.35,493.33,765.59,494.39,762.74,495.22Zm1,7.81a9.11,9.11,0,0,1,2.45-3.4,12.33,12.33,0,0,0,3-.4c-.1.1-.2.21-.31.3-.37.35-.75.69-1.15,1s-.82.63-1.24.92a13.87,13.87,0,0,1-1.33.81,12.23,12.23,0,0,0,1.45-.59c.48-.22,1-.46,1.4-.72s.88-.51,1.3-.79c-.08.14-.18.29-.29.45C767.36,503.15,766.28,503.39,763.71,503Zm-11.12-5.73.21-.05a1.42,1.42,0,0,0,.29-.1,6,6,0,0,0,.85,5l0,.23A6.44,6.44,0,0,1,752.59,497.3Zm7.82-18.46a4.18,4.18,0,0,0-1.11.73c-.33.08-.67.19-1,.3a8,8,0,0,1-3.2.49,11.18,11.18,0,0,0,1.63-.52l1.28-.45A9.87,9.87,0,0,1,760.41,478.84Zm-2.74,3.35c0,.12-.08.25-.11.37a9.15,9.15,0,0,0-4.42,4.63C754.19,483.76,756,482.53,757.67,482.19ZM754,489.56a9.14,9.14,0,0,0-1.1,6.55A7.89,7.89,0,0,1,754,488.5,7.33,7.33,0,0,0,754,489.56Zm.78,14a7.23,7.23,0,0,0,1.73,3.11,12.15,12.15,0,0,1,.21-1.89,6,6,0,0,0,.85,2.51l.14.23.26,0,.15,0c-.42.29-.84.55-1.23.77A8.24,8.24,0,0,1,754.73,503.53ZM760,507a12.14,12.14,0,0,0,1.61-.68,1.68,1.68,0,0,1-.94,1.49,6.41,6.41,0,0,1-2.44.55A15,15,0,0,0,760,507Zm7.15-2.37a5.91,5.91,0,0,0,.34-1.17,4.65,4.65,0,0,0,1.19-1c0,.08,0,.15,0,.21a13.88,13.88,0,0,1-1.09,1.55A3.39,3.39,0,0,1,767.1,504.65Zm10-16.29a10.07,10.07,0,0,1,.2,1.64,10,10,0,0,1,0,1.64,7.26,7.26,0,0,1-.35,1.6,7.3,7.3,0,0,0,.19-1.61A10.77,10.77,0,0,0,777,490a12,12,0,0,0-.35-1.55A9.32,9.32,0,0,0,776,487l.44-.73A15.82,15.82,0,0,1,777.07,488.36Zm2.71-14.43Zm17.34,17.61a13.22,13.22,0,0,0-3.61-2.64,4.23,4.23,0,0,1,.87.11A4.13,4.13,0,0,1,797.12,491.54Zm1.6,5.78c-1.25-.77-3.75-2.34-5.47-3.69l0,0a24.36,24.36,0,0,1,4.84,2.57,21.25,21.25,0,0,0-.88-2.62,3.21,3.21,0,0,0-.19-.31,3.8,3.8,0,0,1,.9,1.12A13.76,13.76,0,0,1,798.72,497.32Zm3.33,7.44a7.8,7.8,0,0,1-.32,5.88,2.42,2.42,0,0,0-.42-.29,7.69,7.69,0,0,0,.12-5,4.07,4.07,0,0,0,.13-1.5,3.94,3.94,0,0,1,.43.77ZM800.17,518a5.69,5.69,0,0,0-.18-.84,11.12,11.12,0,0,0,.93-5.8,1.22,1.22,0,0,1,.07-.17,1.07,1.07,0,0,1,.45.55A10.42,10.42,0,0,1,800.17,518Zm-.8,1.07c-.14,1.52-2,3-3,3.67a12.25,12.25,0,0,0-.59-3.3A7.55,7.55,0,0,0,798,516.2v0a6.89,6.89,0,0,1,0,.79c0,.26,0,.53,0,.8a11,11,0,0,1-.27,1.59,9.67,9.67,0,0,1-.53,1.54,9.67,9.67,0,0,0,.77-1.46,10.59,10.59,0,0,0,.53-1.59,7.48,7.48,0,0,0,.18-.82l.06-.42c0,.16,0,.31,0,.46a8,8,0,0,1,0,1,8.19,8.19,0,0,1-.12,1,5.23,5.23,0,0,1-.26,1,6.32,6.32,0,0,0,.51-.88,10.09,10.09,0,0,0,.38-1c0-.06,0-.12,0-.17A3.94,3.94,0,0,1,799.37,519.06ZM788,490a12.06,12.06,0,0,1,.7,1.91,21,21,0,0,1,.5,2.51,20.35,20.35,0,0,0,0-2.59,12.67,12.67,0,0,0-.27-1.92H789c1,0,2.55.33,2.44,1.72a9.51,9.51,0,0,1-1.47,3.41s2.59-1.55,2.84-3.37a1.69,1.69,0,0,0,0-.45,2.34,2.34,0,0,1,.1,1.26c-.14.9-1.22,1.79-2.17,2.57a8.25,8.25,0,0,0-1.52,1.46,11.55,11.55,0,0,0-1.79-1c-1.35-.67-2.61-1.3-2.58-2.38C784.88,490.92,785.89,490.22,788,490Zm6,32.49Zm-.59,0-.11.12c-4-.79-5.11-1.66-5.52-2.42a9.53,9.53,0,0,0,2.12.22l.8,0,.33,0,0-.23c.19.21.39.43.59.62a7.92,7.92,0,0,0,.69.61,4.15,4.15,0,0,0,.76.5,4.16,4.16,0,0,1-.61-.65,7.21,7.21,0,0,1-.51-.72c-.16-.25-.31-.5-.45-.76s-.21-.42-.31-.63c.06-.42.11-.87.14-1.32a31.15,31.15,0,0,1,2.44,2.6l.23.31.33-.21.22-.15A3.48,3.48,0,0,1,793.41,522.48Zm-2.78,1.4a10.29,10.29,0,0,1-4-2.25,17.2,17.2,0,0,0,3.31,1.64,3.06,3.06,0,0,0,0-.68l.15.06a3.42,3.42,0,0,0,.5.94C790.6,523.68,790.62,523.78,790.63,523.88Zm-8.7-6.59q0-.51,0-1a7.94,7.94,0,0,0,.71,1.07,10.61,10.61,0,0,0,2,1.91,10.53,10.53,0,0,1-1.4-2.27,7,7,0,0,1-.41-1.22c0-.13-.06-.27-.08-.4l.64.32a6,6,0,0,0,2.43,3.68c0,.29-.07.61-.09,1A6.24,6.24,0,0,1,781.93,517.29Zm-3.62-5c0-.13,0-.26,0-.39a8.28,8.28,0,0,0,2.27,3.59c.06-.68.15-1.37.24-2a4.08,4.08,0,0,0,.43.68c-.07.76-.14,1.74-.16,2.77A9,9,0,0,1,778.31,512.27Zm20.92-4.9a38.7,38.7,0,0,0-1.84-4.69c.09-.12.21-.27.35-.47.44,1.09,1.64,3.62,1.68,4.08a7.54,7.54,0,0,0,1.28-2.59A4.28,4.28,0,0,1,799.23,507.37Zm-5,12.19c-.79-1-2.35-2.47-2.81-2.91a8.93,8.93,0,0,0-.62-3.54c.4.25.83.51,1.3.77l.28.16.22-.23a22.48,22.48,0,0,0,1.64-1.85c0,.23.09.47.12.71a17,17,0,0,1,.2,1.75,17.55,17.55,0,0,1,.05,1.78,15.17,15.17,0,0,1-.1,1.78,17.71,17.71,0,0,0,.36-1.76c.09-.59.16-1.19.2-1.8s.07-1.21.06-1.81,0-1-.07-1.46c.31.75.6,1.59.84,2.35a11.67,11.67,0,0,1,0,2,12.23,12.23,0,0,1-.38,2.06,12.46,12.46,0,0,0,.79-2l.12-.4c.05.2.1.37.14.51l.13.51.47-.24.1-.07A7.09,7.09,0,0,1,794.23,519.56Zm-9-24.39a12.63,12.63,0,0,0,1.44.84,16.94,16.94,0,0,0,.82,2.4c.18.41.36.82.56,1.21a6.33,6.33,0,0,0,.68,1.15,6.77,6.77,0,0,1-.44-1.24c-.12-.42-.22-.85-.31-1.27-.11-.58-.21-1.16-.27-1.73a4.84,4.84,0,0,1,1.31.92l.7.8,0-1.06c0-.36.78-1,1.46-1.55l.35-.29a2.33,2.33,0,0,1,.32.85c.2,1.55-1.5,4.6-2.84,6.11-4.11-1.77-5.28-3.91-5.56-5.35A16.11,16.11,0,0,0,785.24,495.17Zm7.38-.77c.26.29.53.57.79.85l1.17,1.18a8.21,8.21,0,0,1,1,1.25,4.18,4.18,0,0,1,.61,1.51,4.46,4.46,0,0,0-.38-1.64,8.84,8.84,0,0,0-.87-1.45l-.14-.19c1.22,1.18,2.73,2.69,2.86,3.83a5.4,5.4,0,0,0,.77-1.56c.19.94-.71,2.59-1.47,3.64a18,18,0,0,0-4.44-4.07,4.42,4.42,0,0,0,.17-1.65,3.15,3.15,0,0,0-.51-1.31A4.89,4.89,0,0,0,792.62,494.4Zm-1.82,24.75Zm-.49.4c-4.18.14-5.37-1.91-5.9-3.49l.66.19a5.93,5.93,0,0,0,.44.71,4.21,4.21,0,0,0,.72.8,3.4,3.4,0,0,0,.91.55,9.25,9.25,0,0,0,1,.29,9.32,9.32,0,0,1-.89-.48,2.77,2.77,0,0,1-.71-.65,3.75,3.75,0,0,1-.48-.82l-.08-.21.54.09a4.74,4.74,0,0,0,.46.62,5.39,5.39,0,0,0,.7.65,5.51,5.51,0,0,0,.79.5,4.71,4.71,0,0,0,.85.34,4.2,4.2,0,0,1-.73-.52,4.61,4.61,0,0,1-.62-.63,4.91,4.91,0,0,1-.48-.71l-.06-.13.15,0,.3,0,.12-.27a16.87,16.87,0,0,0,1-4.62l.39.31.29.63,0,0C790.88,514.66,790.64,517.47,790.31,519.55Zm-9-7.11c.39.19.83.38,1.33.57a11.53,11.53,0,0,1,.49-3.63l0,.11a11.84,11.84,0,0,0,1.93,3.68,9.89,9.89,0,0,0,1.42,1.47,9.11,9.11,0,0,1-1.21-1.62,11.15,11.15,0,0,1-.87-1.81,9.82,9.82,0,0,1-.52-1.91,9,9,0,0,1-.15-1.16l.14-.16a16,16,0,0,0,2.19.75l.31.07.06-.11a7.56,7.56,0,0,0,1.73,2.43l0,.31v0a20,20,0,0,1-.83,4.35C782.66,515.25,781.57,513.6,781.34,512.44Zm.66-8.56a2.31,2.31,0,0,1-.32-1.44,11,11,0,0,1,1-2.46l.13-.28a19.15,19.15,0,0,0,.37,2.6,11.13,11.13,0,0,0,.64,2,9.41,9.41,0,0,0,1,1.83,9.17,9.17,0,0,1-.8-1.92,11.6,11.6,0,0,1-.38-2,18.08,18.08,0,0,1,0-2.85,10.82,10.82,0,0,0,4.29,3.35,18.17,18.17,0,0,1-1.93,5.11c-3.24-.9-4.91-2.5-5.47-3.56a5.91,5.91,0,0,0,1.05.28l1,.14ZM792.23,513c-3.73-2.13-4.74-3.79-5.2-5.26a18.66,18.66,0,0,0,1.72-4.65h0a14.29,14.29,0,0,0,.21,1.6,18.26,18.26,0,0,0,.53,2.09,20,20,0,0,0,.77,2c.29.65.61,1.28.91,1.91-.22-.67-.47-1.33-.67-2a18.26,18.26,0,0,1-.51-2,17.86,17.86,0,0,1-.27-2.06c0-.5,0-1,0-1.52l.62.59c1.25,1.64,3.37,4.36,3.45,6a11,11,0,0,0,2.14-3.54C795.85,508.15,794.58,510.54,792.23,513Zm2.07-6.17a30.28,30.28,0,0,0-4.16-4.51,16.33,16.33,0,0,0,2-3.37,9.31,9.31,0,0,1,.54.8,14.69,14.69,0,0,1,.74,1.42,9.81,9.81,0,0,1,.8,3.14,10.24,10.24,0,0,0-.32-3.3,11.15,11.15,0,0,0-.54-1.6v0a10.7,10.7,0,0,1,3.1,3.25A11.82,11.82,0,0,1,794.3,506.82Zm-15.42-2.12a9.71,9.71,0,0,0,.23,1.95,8.24,8.24,0,0,0,.53,1.54,4.77,4.77,0,0,0,.9,1.31,4.66,4.66,0,0,1-.66-1.41,7.7,7.7,0,0,1-.26-1.51,8.91,8.91,0,0,1,.12-2.07,7.3,7.3,0,0,0,3,2.89v0h0v0a9.84,9.84,0,0,0-1,3.92c-2.39-1-3.72-2.15-4-3.51A4.15,4.15,0,0,1,778.88,504.7Zm18.3,10.17a34.19,34.19,0,0,0-1.66-4.77,7.47,7.47,0,0,0,1.1-5.45c.14-.31.26-.59.35-.84.38.88.67,1.59.9,2.17a19.38,19.38,0,0,1,.31,2.38,7.07,7.07,0,0,1,0,1.3,6.68,6.68,0,0,1-.29,1.31,7.4,7.4,0,0,0,.63-1.22,5.3,5.3,0,0,0,.23-.67l.55-.54c.2-.2.4-.4.59-.61,0,.12,0,.24,0,.36a7,7,0,0,1-.23,1.71,7.24,7.24,0,0,1-.62,1.66,6.7,6.7,0,0,1-1,1.49,6.67,6.67,0,0,0,1.3-1.3,8.24,8.24,0,0,0,1-1.61,8.57,8.57,0,0,0,.61-1.81,1.6,1.6,0,0,0,0-.21A10.83,10.83,0,0,1,797.18,514.87ZM778.83,498.8a5.35,5.35,0,0,0,0,.89,6.26,6.26,0,0,0,.34,1.69,6.11,6.11,0,0,1,.08-1.66,5.32,5.32,0,0,1,.41-1.18,7.32,7.32,0,0,0,0,.81,8.69,8.69,0,0,0,.4,2.23,8.52,8.52,0,0,1,0-2.2,4.8,4.8,0,0,1,.73-1.92l.08-.1a6.4,6.4,0,0,0,.86.59l.19.12.21-.11a7.91,7.91,0,0,0,.71-.43c0,.05,0,.09,0,.14-.25.62-.6,1.35-.89,1.95a10.47,10.47,0,0,0-1.09,2.77,3.49,3.49,0,0,0,.11,1.13,3.75,3.75,0,0,1-2.38-2.07,3.58,3.58,0,0,1-.17-2.41Zm3.91-7.41a4.65,4.65,0,0,0-.59.92,4.48,4.48,0,0,0-.39,1.24,4.09,4.09,0,0,0,0,1.26,3.9,3.9,0,0,1,.73-2.29,5.1,5.1,0,0,1,1.67-1.43l.22,0A4.8,4.8,0,0,0,784,493a2.23,2.23,0,0,0,.64,1.61,12.05,12.05,0,0,1-2.72,2.49,3.48,3.48,0,0,1-1.52-1.64,10.69,10.69,0,0,0,1.09.85,4.22,4.22,0,0,1,1.21-4.9Zm-5.56,19.52c0-.7,0-1.39,0-2a4.33,4.33,0,0,0,.36.62c0,.88-.07,2-.09,3.13a10.92,10.92,0,0,1-1.46-3.57A19,19,0,0,0,777.18,510.91Zm23.76-9.54a13.44,13.44,0,0,0-1.26-3.44c0-.2-.1-.59-.18-1.05,1,.85,1.75,2.15,2.25,5C801.47,501.69,801.2,501.53,800.94,501.37Zm-7.42-10.59a2.48,2.48,0,0,0-.32-.54,9,9,0,0,1,4,1.61l-.76-.06A10.27,10.27,0,0,0,793.52,490.78Zm-13.39,26.36c0,.15,0,.29,0,.44a4.79,4.79,0,0,1-1.77-2.73A10.56,10.56,0,0,0,780.13,517.14Zm1,.93.09.08.41.33a6.36,6.36,0,0,0,1.66,1.6l0,.06a8.7,8.7,0,0,0,.35.94A5.54,5.54,0,0,1,781.15,518.07Zm3.28,2.64c.25.12.51.23.79.34a5.62,5.62,0,0,0,2.66,2.54A4.76,4.76,0,0,1,784.43,520.71Zm6.49,4.16.5.16.05-.52v0a7.7,7.7,0,0,0,1.86,1,5,5,0,0,1-2.69-.67Zm4.32.28q-3.12-.75-4.07-2.18c.64.17,1.37.34,2.21.5l.24,0,.16-.18.15-.17.27.41a5.12,5.12,0,0,0,.77.84,5,5,0,0,1-.39-1,5.62,5.62,0,0,1-.15-.8,4,4,0,0,0,.88-1.54,15.82,15.82,0,0,1,.17,3.38,13.66,13.66,0,0,0,2.29-1.59A15.89,15.89,0,0,1,795.24,525.15Zm-3-45.63a6.37,6.37,0,0,1,.1,2.31V482c-.19-.45-.36-.94-.52-1.42a16.23,16.23,0,0,0-.64-1.69,2.29,2.29,0,0,0-1.28-1.08l.34-.11.1,0A6.26,6.26,0,0,1,792.27,479.52Zm-13-2.5a8.44,8.44,0,0,1,.73-2.58l.06-.16c1.18-.28,2.43-.51,3.65-.74,1-.18,1.88-.36,2.68-.54a9.43,9.43,0,0,0-1.18,1.84,1.46,1.46,0,0,0-.44.19,2.38,2.38,0,0,1-1.71.25,3.47,3.47,0,0,0-3.09,1.14,4.31,4.31,0,0,1-.34.3Zm2.42,11.77c1.26-.5,2.48-.57,4.46.72a2.68,2.68,0,0,0-.42.19A4.83,4.83,0,0,0,781.72,488.79Z" transform="translate(-43.06 -46.38)"/></svg>